<svg width="43" height="36" viewBox="0 0 43 36" fill="none" xmlns="http://www.w3.org/2000/svg">
<g clip-path="url(#clip0_2185_10407)">
<path d="M0.00647573 21.5992C0.00114685 21.1937 0.0371168 20.8357 0.0397812 20.4789C0.0437779 19.7316 0.231621 19.023 0.447441 18.3131C0.600646 17.8091 0.793818 17.32 1.00431 16.836C1.22546 16.3269 1.52387 15.8566 1.83695 15.3925C1.9342 15.249 2.01813 15.0943 2.09273 14.9396C2.18865 14.7413 2.174 14.5429 2.11938 14.3271C2.02079 13.9341 1.81563 13.5773 1.74502 13.1693C1.69573 12.8861 1.61313 12.5905 1.5332 12.3048C1.44394 11.9841 1.35069 11.6535 1.30273 11.3317C1.20148 10.658 1.06293 9.99052 0.977664 9.31433C0.857765 8.36617 0.816466 7.41802 0.839113 6.46737C0.853768 5.86853 0.908389 5.2697 0.955017 4.67211C1.00298 4.05581 1.08025 3.44574 1.27208 2.84691C1.38266 2.50133 1.47858 2.14702 1.59182 1.80269C1.68507 1.51824 1.86626 1.25874 2.0501 1.00673C2.3725 0.565093 2.80147 0.261933 3.31305 0.0461027C3.52087 -0.0412275 3.69806 -5.75407e-05 3.86059 0.132185C3.9272 0.187079 4.00713 0.240724 4.0431 0.311836C4.2043 0.639948 4.54269 0.699831 4.85443 0.79839C5.45392 0.989269 6.0774 1.11902 6.65159 1.36728C7.06191 1.54444 7.46158 1.74779 7.85059 1.96861C8.35816 2.2568 8.81911 2.60488 9.29471 2.93299C9.56116 3.11763 9.78098 3.35841 10.0514 3.5443C10.6309 3.94352 11.1092 4.44131 11.5928 4.93535C11.9845 5.33582 12.3881 5.72381 12.7505 6.14923C12.989 6.42869 13.2128 6.71688 13.4153 7.02004C13.5352 7.19844 13.6617 7.3731 13.8536 7.49162C14.0214 7.59393 14.192 7.62511 14.3931 7.54028C14.7235 7.4018 15.0872 7.36811 15.4376 7.29825C15.776 7.23088 16.1183 7.18223 16.4607 7.13981C16.919 7.08242 17.3773 7.02129 17.8382 6.99509C18.5523 6.95392 19.269 6.92024 19.9844 6.92024C20.7198 6.92024 21.4606 6.92523 22.1919 6.99634C23.1365 7.08741 24.0917 7.12858 25.0149 7.37061C25.2894 7.44297 25.5918 7.3993 25.8489 7.53404C25.9648 7.59517 26.0767 7.6064 26.2006 7.60515C26.2805 7.60515 26.3511 7.58519 26.4004 7.52531C26.5416 7.35314 26.7375 7.21591 26.8307 7.01755C27.0252 6.60709 27.3996 6.31766 27.6394 5.94089C28.0071 5.36451 28.5373 4.92162 29.0142 4.43632C29.3513 4.09323 29.7443 3.80504 30.136 3.51935C30.842 3.0066 31.6134 2.58616 32.3861 2.17322C32.6885 2.01103 33.0402 1.9262 33.3533 1.77025C33.8955 1.50077 34.455 1.27621 35.0439 1.10529C35.6354 0.933128 36.1909 0.677375 36.6878 0.321817C36.8104 0.234486 36.9476 0.184583 37.1048 0.188326C37.2953 0.193316 37.4938 0.140918 37.6737 0.167117C38.092 0.225753 38.4397 0.420375 38.6515 0.782171C38.846 1.11527 39.0898 1.41843 39.259 1.76775C39.3816 2.02101 39.4495 2.2855 39.5454 2.5425C39.8439 3.3397 39.9438 4.17183 40.0583 5.0077C40.1583 5.73629 40.1503 6.46861 40.2622 7.1947C40.3208 7.57646 40.2822 7.97194 40.2555 8.36243C40.2289 8.75791 40.1942 9.1509 40.1556 9.54513C40.0917 10.2176 39.9757 10.8813 39.8385 11.545C39.6867 12.2798 39.3696 12.9498 39.0672 13.6297C38.9846 13.8168 38.858 13.9865 38.7488 14.1624C38.6329 14.3483 38.5396 14.5454 38.4104 14.7263C38.1679 15.0681 38.2838 15.4075 38.4903 15.7156C38.6142 15.9003 38.7141 16.0936 38.8194 16.2833C39.1977 16.9607 39.4495 17.6831 39.6827 18.4141C39.8052 18.7996 39.8945 19.1814 39.9318 19.5781C39.9398 19.6592 39.9518 19.7391 39.8798 19.789C39.8132 19.8351 39.7439 19.7915 39.672 19.7628C38.8394 19.4384 38.2972 19.5282 37.5937 20.0971C36.9743 20.5974 36.4147 21.1638 35.8539 21.7239C35.6847 21.8924 35.4715 22.0221 35.3676 22.2666C35.1957 22.6734 35.1038 23.0651 35.229 23.498C35.3623 23.9596 35.6913 24.3189 35.9111 24.7343C36.0444 24.9864 36.2322 25.2134 36.2695 25.5116C36.3268 25.9682 35.8845 26.194 35.5448 26.2664C35.1838 26.3425 34.8254 26.431 34.4684 26.5184C34.15 26.5957 33.8449 26.703 33.5651 26.8739C33.4878 26.9213 33.4359 26.9812 33.3746 27.0361C32.9843 27.378 32.8124 27.8021 32.8164 28.2999C32.8231 29.1707 32.8004 30.0415 32.8271 30.9111C32.8404 31.3502 33.0282 31.742 33.4132 32.0314C33.5251 32.115 33.4878 32.2248 33.4066 32.3321C33.1854 32.6215 32.8377 32.7463 32.5326 32.9159C32.0304 33.1941 31.5308 33.4836 30.9966 33.7081C30.4757 33.9277 29.9641 34.1598 29.4259 34.3482C28.8637 34.544 28.3015 34.7386 27.734 34.917C27.3809 35.0281 27.0159 35.1079 26.6549 35.2002C26.058 35.3524 25.4559 35.4872 24.8457 35.5832C23.9998 35.7167 23.1578 35.8615 22.2972 35.9089C21.5964 35.9488 20.8944 35.9987 20.1936 35.9974C19.6847 35.9974 19.1718 36.0149 18.6616 35.9525C18.3978 35.9201 18.13 35.9188 17.8662 35.9114C17.2028 35.8939 16.5513 35.7903 15.8985 35.6943C15.315 35.6082 14.7302 35.5196 14.1547 35.3974C13.6791 35.2963 13.2194 35.1329 12.7478 35.0144C12.0604 34.8434 11.4089 34.5827 10.7468 34.3482C9.76899 34.0026 8.85109 33.5447 7.93452 33.0794C7.08456 32.649 6.30255 32.125 5.55651 31.5661C4.67458 30.9048 3.8486 30.1788 3.13453 29.3454C2.57366 28.6904 2.0501 28.018 1.63978 27.2732C1.30006 26.6569 0.992319 26.0281 0.755184 25.3656C0.633951 25.0275 0.511387 24.6894 0.411471 24.3463C0.147691 23.4319 -0.0414842 22.5062 0.00647573 21.5992ZM39.6121 6.41871C39.5934 6.16171 39.5801 5.90222 39.5601 5.64646C39.5161 5.07632 39.5108 4.50618 39.3816 3.94228C39.315 3.65284 39.2204 3.37089 39.1751 3.07396C39.1298 2.7733 38.9699 2.48761 38.8873 2.19443C38.7368 1.66296 38.3211 1.30615 38.028 0.868254C38.0201 0.855778 37.9907 0.855778 37.9734 0.845798C37.671 0.66989 37.4032 0.802133 37.1648 0.956832C36.7558 1.22381 36.3095 1.45461 36.0204 1.85758C35.9191 1.99856 35.7499 2.06343 35.6274 2.17945C35.0958 2.68347 34.6908 3.27607 34.3005 3.8774C34.1713 4.07577 34.0447 4.27787 33.9235 4.47998C33.8156 4.65963 33.7183 4.85301 33.5731 5.02143C33.4465 5.16864 33.3106 5.33207 33.24 5.51297C33.1175 5.82736 32.9216 6.10307 32.7431 6.38253C32.45 6.84413 32.1889 7.32195 31.9784 7.81475C31.8306 8.16282 31.72 8.5321 31.5828 8.88766C31.5561 8.95752 31.5055 9.01491 31.4908 9.09601C31.4469 9.34178 31.6134 9.45655 31.7946 9.56509C32.113 9.75223 32.4394 9.92814 32.7511 10.1228C33.1601 10.3773 33.5678 10.633 33.9661 10.9037C34.3644 11.1745 34.7761 11.434 35.1331 11.7483C35.714 12.2599 36.3428 12.7227 36.8477 13.3141C37.1381 13.6534 37.4579 13.9728 37.723 14.3321C37.8242 14.4693 38.0161 14.4793 38.0987 14.3358C38.2026 14.1562 38.3051 13.9715 38.4011 13.7881C38.6342 13.3452 38.6768 12.8525 38.898 12.4083C39.1285 11.9442 39.1604 11.4227 39.255 10.92C39.291 10.7291 39.2524 10.5332 39.311 10.3498C39.4215 10.0055 39.4708 9.64868 39.5161 9.29936C39.5934 8.69304 39.5228 8.07798 39.5907 7.46418C39.628 7.12484 39.6507 6.76678 39.6094 6.41746L39.6121 6.41871ZM1.18949 6.143C1.1695 6.26027 1.22412 6.3713 1.22412 6.48483C1.22146 7.28328 1.23878 8.08048 1.31072 8.87643C1.34402 9.24447 1.38666 9.6125 1.41596 9.98053C1.43595 10.2363 1.4586 10.4995 1.51721 10.7565C1.59315 11.0846 1.67042 11.4177 1.70639 11.7483C1.76101 12.2424 1.9342 12.7065 2.02346 13.1905C2.08074 13.5037 2.22462 13.8056 2.29257 14.1237C2.30589 14.1874 2.27391 14.2709 2.38582 14.2884C2.47774 14.3034 2.56034 14.2722 2.59764 14.2036C2.66692 14.0763 2.78682 13.9877 2.86009 13.8667C3.06925 13.5224 3.37699 13.2517 3.64344 12.9523C3.9645 12.5905 4.34019 12.2798 4.7212 11.9729C5.04893 11.7097 5.35268 11.4152 5.70438 11.1832C6.2013 10.8563 6.69955 10.5282 7.20713 10.2138C7.62678 9.95434 8.08506 9.75722 8.50071 9.49024C8.64193 9.39917 8.8311 9.34303 8.98964 9.25195C9.12819 9.17211 9.21478 9.0723 9.18814 8.90887C9.12819 8.55456 8.92436 8.25514 8.76582 7.94075C8.64326 7.69747 8.49938 7.46293 8.37016 7.2209C8.22628 6.95018 8.09838 6.66698 7.9132 6.4237C7.65742 6.08935 7.46025 5.72381 7.22578 5.37823C6.94868 4.97028 6.71687 4.53612 6.38781 4.15686C6.22395 3.96848 6.09206 3.75639 5.93352 3.56052C5.66575 3.23116 5.45126 2.86562 5.19947 2.52378C4.91304 2.13454 4.65592 1.72783 4.35085 1.34982C4.1217 1.06662 3.89523 0.782171 3.59814 0.555113C3.4476 0.440336 3.29173 0.429108 3.10788 0.506458C2.98532 0.557608 2.89606 0.641195 2.79348 0.71106C2.27125 1.06787 2.0128 1.5881 1.79698 2.13454C1.69173 2.40027 1.74236 2.6972 1.62379 2.95545C1.50656 3.20995 1.46659 3.48317 1.41197 3.74641C1.24944 4.53612 1.26409 5.3433 1.18949 6.14175V6.143ZM28.0204 25.2271C28.6066 25.2533 29.2274 25.1822 29.8469 25.0837C30.5676 24.9689 31.2657 24.7855 31.9451 24.5322C32.3568 24.3788 32.7644 24.2104 33.1415 23.997C33.7996 23.6253 34.3351 23.1088 34.8614 22.5898C34.9639 22.4887 35.0599 22.3777 35.1358 22.2579C35.4915 21.689 35.7113 21.0702 35.8818 20.4327C36.1296 19.5033 36.2149 18.5638 36.135 17.6057C36.0963 17.1503 35.8992 16.8671 35.4289 16.7137C34.9666 16.564 34.491 16.4816 34.0127 16.4517C33.1082 16.3931 32.2049 16.4243 31.315 16.6413C30.8967 16.7436 30.4757 16.8472 30.0853 17.0069C29.5431 17.2277 29.0182 17.4934 28.5413 17.8303C28.2336 18.0486 27.8845 18.2208 27.6247 18.4915C27.4462 18.6774 27.2637 18.8595 27.0679 19.0254C26.3804 19.6093 25.8955 20.3117 25.5998 21.1351C25.5025 21.4046 25.4399 21.6803 25.3613 21.9523C25.1521 22.6721 25.0322 23.3994 25.0709 24.1467C25.0842 24.3863 25.1162 24.632 25.3573 24.7718C25.5531 24.8853 25.7676 24.9714 25.9914 25.03C26.6416 25.1984 27.305 25.2459 28.0204 25.2271ZM13.37 25.0462C13.6564 25.0462 13.9442 25.0575 14.2306 25.0437C14.7861 25.0175 15.3257 24.9215 15.8293 24.6857C16.2249 24.501 16.4088 24.1979 16.4194 23.7924C16.4288 23.4905 16.3635 23.1948 16.3168 22.8992C16.2103 22.2305 16.0371 21.5767 15.776 20.9417C15.4775 20.2156 15.0486 19.5731 14.4744 19.0155C13.8549 18.4154 13.1515 17.9164 12.3828 17.4934C11.6701 17.1004 10.9333 16.7648 10.1274 16.5727C9.18547 16.3469 8.2356 16.2097 7.25908 16.2708C6.73152 16.3045 6.21729 16.3993 5.72303 16.5652C5.35268 16.69 5.0023 16.8709 4.8904 17.2651C4.83844 17.4473 4.83178 17.6431 4.82112 17.8328C4.78249 18.5052 4.88373 19.1714 4.95434 19.8376C4.99697 20.2343 5.08224 20.6336 5.23677 21.0103C5.41263 21.4395 5.62578 21.8549 5.9242 22.2205C6.24127 22.6085 6.557 23.0015 6.96733 23.3121C7.26308 23.5354 7.57882 23.7176 7.93718 23.8573C8.26091 23.9833 8.56732 24.158 8.89771 24.2777C10.3365 24.7992 11.8246 25.0812 13.3726 25.045L13.37 25.0462ZM20.3521 34.2633C20.556 34.2658 20.8211 34.2321 21.0849 34.2284C21.7909 34.2184 22.4624 34.0487 23.1138 33.8292C24.0411 33.516 24.8804 33.0532 25.5278 32.3383C26.0088 31.8081 26.3898 31.2255 26.487 30.5131C26.6109 29.6074 26.3618 28.7964 25.7983 28.0616C25.5958 27.7971 25.316 27.6 25.0815 27.3617C24.7951 27.0711 24.3994 26.9176 24.0437 26.713C23.3443 26.31 22.573 26.1004 21.7843 25.9669C20.953 25.826 20.111 25.7923 19.2611 25.9071C18.2659 26.0406 17.324 26.2951 16.4407 26.7579C15.6574 27.1684 15.0273 27.7198 14.577 28.4384C13.9268 29.4751 14.0041 30.8811 14.6849 31.8418C14.7555 31.9416 14.8554 32.0227 14.934 32.1175C15.3776 32.6564 15.9158 33.0956 16.5513 33.42C17.713 34.0138 18.9693 34.2658 20.3508 34.2658L20.3521 34.2633ZM22.4237 22.9416C22.4237 22.5436 22.4277 22.2367 22.4237 21.9298C22.4198 21.694 22.3851 21.4595 22.3252 21.2299C22.2772 21.044 22.0987 20.9729 21.9362 21.0877C21.7603 21.2124 21.5658 21.3035 21.3753 21.4033C20.913 21.6466 20.4387 21.7377 19.9338 21.4956C19.7353 21.4008 19.5888 21.2486 19.4156 21.1289C19.1745 20.9617 19.0133 21.0228 18.9706 21.3048C18.9427 21.4869 18.9147 21.6703 18.924 21.8574C18.9546 22.47 18.984 23.0813 19.0026 23.6939C19.0106 23.9658 19.0892 24.2228 19.1505 24.4836C19.1944 24.6682 19.3117 24.8179 19.5062 24.9053C19.7233 25.0013 19.9565 25.02 20.1843 25.0126C20.6332 24.9988 21.0809 24.9676 21.5285 24.9165C21.9641 24.8666 22.2452 24.6607 22.3531 24.264C22.4797 23.7974 22.4104 23.3233 22.4251 22.9428L22.4237 22.9416ZM20.6639 17.8066C21.2727 17.8827 21.7736 17.3487 21.8136 16.952C21.8735 16.3581 21.8615 15.773 21.5818 15.2116C21.4073 14.861 21.1382 14.6477 20.7372 14.6028C20.2416 14.5467 19.8446 14.7101 19.5808 15.1243C19.3876 15.4274 19.3703 15.768 19.3437 16.1036C19.309 16.5553 19.373 16.9894 19.6341 17.3911C19.8779 17.7641 20.2549 17.8078 20.6626 17.8066H20.6639ZM21.9495 19.8526C21.9295 19.4608 21.8709 19.0828 21.6111 18.7522C20.9636 17.9338 19.9072 18.2195 19.5168 18.7547C19.357 18.9743 19.3223 19.2213 19.2917 19.4733C19.2557 19.7777 19.2198 20.0934 19.2824 20.3841C19.4196 21.0141 20.1643 21.4657 20.8864 21.2648C21.3047 21.1488 21.695 20.9667 21.8322 20.5275C21.9015 20.308 21.9561 20.0846 21.9481 19.8513L21.9495 19.8526ZM21.5392 9.25569C21.5392 9.1222 21.5551 8.98622 21.5365 8.85398C21.4939 8.56204 21.35 8.35744 21.0316 8.31253C20.7465 8.27136 20.4601 8.29132 20.175 8.29382C19.8006 8.29756 19.5568 8.57452 19.5954 8.92509C19.6074 9.03862 19.6021 9.15464 19.6114 9.26942C19.6354 9.56759 19.6714 9.86576 19.77 10.1527C19.8259 10.3161 19.9232 10.4471 20.0857 10.537C20.5533 10.794 21.274 10.6106 21.4472 10.0516C21.5285 9.7909 21.5511 9.52642 21.5392 9.25819V9.25569ZM21.5312 12.6928C21.5312 12.5268 21.5378 12.3597 21.5298 12.1937C21.5085 11.7845 21.0156 11.3379 20.5826 11.3292C20.1643 11.3192 19.7273 11.6211 19.6181 12.0191C19.4729 12.5468 19.5768 13.067 19.714 13.5823C19.7686 13.7881 19.9432 13.863 20.1403 13.8879C20.3561 13.9154 20.5746 13.9279 20.7918 13.9341C21.1621 13.9441 21.33 13.8156 21.4579 13.4887C21.5605 13.2267 21.5272 12.9585 21.5325 12.6915L21.5312 12.6928Z" fill="white"/>
<path d="M39.6121 6.41892C39.6533 6.76825 39.6307 7.1263 39.5934 7.46564C39.5255 8.07945 39.5974 8.6945 39.5188 9.30082C39.4735 9.65014 39.4242 10.0082 39.3136 10.3513C39.255 10.5334 39.2936 10.7305 39.2577 10.9214C39.1631 11.4242 39.1325 11.9457 38.9006 12.4098C38.6795 12.8552 38.6369 13.348 38.4037 13.7896C38.3078 13.973 38.2052 14.1564 38.1013 14.3373C38.0187 14.4807 37.8269 14.4708 37.7256 14.3335C37.4605 13.973 37.1408 13.6549 36.8504 13.3155C36.3454 12.7242 35.7166 12.2613 35.1358 11.7498C34.7788 11.4367 34.3671 11.1759 33.9688 10.9052C33.5704 10.6345 33.1628 10.3787 32.7538 10.1242C32.4407 9.9296 32.1143 9.75369 31.7972 9.56655C31.6147 9.45926 31.4495 9.34449 31.4935 9.09747C31.5082 9.01637 31.5574 8.96023 31.5854 8.88912C31.7226 8.53232 31.8332 8.16428 31.9811 7.81621C32.1916 7.32342 32.4514 6.84559 32.7458 6.38399C32.9243 6.10329 33.1215 5.82882 33.2427 5.51443C33.3133 5.33353 33.4492 5.1701 33.5758 5.02289C33.721 4.85447 33.8196 4.66109 33.9261 4.48144C34.0474 4.27809 34.1739 4.07723 34.3032 3.87886C34.6935 3.27878 35.0985 2.68618 35.63 2.18091C35.7526 2.06489 35.9218 1.99877 36.023 1.85904C36.3121 1.45607 36.7584 1.22527 37.1674 0.958292C37.4046 0.802345 37.6737 0.67135 37.9761 0.847258C37.9934 0.857238 38.0227 0.855991 38.0307 0.869714C38.3225 1.30761 38.7394 1.66442 38.89 2.19589C38.9726 2.48907 39.1324 2.77476 39.1777 3.07543C39.223 3.37235 39.3176 3.6543 39.3842 3.94374C39.5135 4.50764 39.5188 5.07778 39.5628 5.64792C39.5827 5.90368 39.5961 6.16317 39.6147 6.42017L39.6121 6.41892Z" fill="#EF61B8"/>
<path d="M1.18994 6.14229C1.26455 5.34384 1.24989 4.53541 1.41242 3.74695C1.46705 3.48371 1.50701 3.21174 1.62425 2.95598C1.74281 2.69774 1.69219 2.40081 1.79744 2.13508C2.01326 1.58989 2.27171 1.0684 2.79394 0.711598C2.89652 0.641734 2.98578 0.558147 3.10834 0.506996C3.29219 0.429647 3.44806 0.440875 3.5986 0.555652C3.89435 0.78271 4.12083 1.06591 4.3513 1.35036C4.65638 1.72837 4.9135 2.13508 5.19993 2.52432C5.45172 2.86616 5.6662 3.2317 5.93398 3.56106C6.09251 3.75568 6.2244 3.96777 6.38827 4.1574C6.71732 4.53666 6.94913 4.96957 7.22623 5.37877C7.4607 5.72435 7.65787 6.08864 7.91366 6.42424C8.10017 6.66752 8.22806 6.95072 8.37061 7.22144C8.4985 7.46347 8.64372 7.69801 8.76628 7.94129C8.92481 8.25568 9.12864 8.55509 9.18859 8.90941C9.21657 9.07284 9.12864 9.17264 8.99009 9.25249C8.83156 9.34356 8.64238 9.3997 8.50117 9.49078C8.08552 9.759 7.62856 9.95487 7.20758 10.2144C6.69867 10.5275 6.20176 10.8556 5.70484 11.1837C5.35313 11.4158 5.04938 11.7102 4.72166 11.9734C4.34064 12.2791 3.96363 12.591 3.64389 12.9528C3.37745 13.2535 3.07104 13.5242 2.86055 13.8673C2.78727 13.987 2.66738 14.0769 2.5981 14.2041C2.5608 14.2727 2.4782 14.3039 2.38628 14.2889C2.27437 14.2715 2.30634 14.1879 2.29302 14.1243C2.22508 13.8074 2.08253 13.5055 2.02391 13.1911C1.93465 12.707 1.76147 12.2417 1.70684 11.7489C1.67087 11.4183 1.59361 11.0852 1.51767 10.7571C1.45905 10.5013 1.4364 10.2368 1.41642 9.98107C1.38711 9.61304 1.34448 9.245 1.31118 8.87697C1.23924 8.07977 1.22192 7.28382 1.22458 6.48537C1.22458 6.37059 1.16996 6.26081 1.18994 6.14354V6.14229Z" fill="#EF61B8"/>
<path fill-rule="evenodd" clip-rule="evenodd" d="M20.5517 28.3174C20.9446 28.3399 21.3202 28.4297 21.6758 28.5781C22.1991 28.7964 22.5974 29.1355 22.7627 29.668C22.9465 30.2579 22.6337 30.8682 22.1504 31.2188C21.5842 31.628 20.9002 31.7346 20.2021 31.7471L20.2031 31.7451C19.4985 31.7114 18.7529 31.5506 18.2002 30.9756C17.8138 30.5739 17.7073 30.1033 17.8965 29.5694C18.0751 29.0669 18.4907 28.8162 18.9502 28.5967C19.4537 28.3572 19.9909 28.285 20.5517 28.3174ZM20.4717 22.6787C20.7634 22.6812 21.2054 22.9268 21.1494 23.21C21.1493 23.498 20.8742 23.7449 20.5508 23.7451C20.227 23.7451 19.9563 23.4742 19.959 23.1524C19.9603 22.9104 20.2119 22.6763 20.4717 22.6787Z" fill="white"/>
<path d="M39.95 19.6024C40.1245 20.4158 39.922 21.5124 39.7808 22.2248C38.6764 27.7964 35.575 30.9328 33.1224 32.5921C33.0891 32.6146 32.2445 33.0749 32.2445 33.0749C32.2445 33.0749 30.5885 29.0016 31.4012 27.1701C31.9993 25.819 36.1079 22.0139 36.6434 19.7309C36.9086 18.6031 39.6303 18.1115 39.95 19.6011V19.6024Z" fill="white"/>
</g>
<defs>
<clipPath id="clip0_2185_10407">
<rect width="42.9241" height="36" fill="white"/>
</clipPath>
</defs>
</svg>
