<svg width="28" height="28" viewBox="0 0 28 28" fill="none" xmlns="http://www.w3.org/2000/svg">
<rect width="28" height="28" rx="14" fill="white"/>
<rect width="28" height="28" rx="14" fill="#EF61B8"/>
<path d="M14 0C21.732 2.57703e-07 28 6.26801 28 14C28 21.732 21.732 28 14 28C6.26801 28 2.5772e-07 21.732 0 14C0 6.26801 6.26801 0 14 0ZM13.999 6.5332C11.9727 6.53321 11.718 6.54189 10.9219 6.57812C10.127 6.61453 9.58414 6.74016 9.10938 6.9248C8.61835 7.11549 8.20208 7.37106 7.78711 7.78613C7.37184 8.20109 7.11613 8.61756 6.9248 9.1084C6.7397 9.58329 6.61391 10.1264 6.57812 10.9209C6.5425 11.7174 6.5332 11.9722 6.5332 14C6.5332 16.0278 6.54204 16.2817 6.57812 17.0781C6.61469 17.8729 6.74033 18.4159 6.9248 18.8906C7.11564 19.3816 7.37109 19.798 7.78613 20.2129C8.20091 20.6281 8.61776 20.8835 9.1084 21.0742C9.58342 21.2588 10.1263 21.3855 10.9209 21.4219C11.7174 21.4581 11.9723 21.4668 14 21.4668C16.0277 21.4668 16.2817 21.4581 17.0781 21.4219C17.8728 21.3855 18.4156 21.2588 18.8906 21.0742C19.3816 20.8835 19.798 20.6282 20.2129 20.2129C20.6281 19.798 20.8829 19.3814 21.0742 18.8906C21.2578 18.4157 21.3845 17.8727 21.4219 17.0781C21.4577 16.2817 21.4668 16.0278 21.4668 14C21.4668 11.9722 21.4577 11.7174 21.4219 10.9209C21.3845 10.1263 21.2577 9.58402 21.0742 9.10938C20.8829 8.61829 20.6282 8.20115 20.2129 7.78613C19.7976 7.3708 19.3822 7.11536 18.8906 6.9248C18.4147 6.7402 17.8718 6.61455 17.0771 6.57812C16.2808 6.54188 16.0268 6.53321 13.999 6.5332Z" fill="white"/>
<path d="M13.3307 7.87891C13.5295 7.8786 13.7514 7.87891 14.0006 7.87891C15.9942 7.87891 16.2309 7.8861 17.0182 7.92188C17.7457 7.95517 18.1408 8.07655 18.4039 8.17871C18.7524 8.31405 19.0011 8.47597 19.2623 8.7373C19.5236 8.99856 19.6853 9.24742 19.8209 9.5957C19.9231 9.85859 20.0446 10.2544 20.0778 10.9824C20.1135 11.7692 20.1217 12.0059 20.1217 13.998C20.1217 15.9907 20.1135 16.2275 20.0778 17.0146C20.0445 17.7425 19.9231 18.1375 19.8209 18.4004C19.6856 18.7487 19.5235 18.9967 19.2623 19.2578C19.001 19.5191 18.7525 19.6811 18.4039 19.8164C18.1411 19.919 17.7459 20.0409 17.0182 20.0742C16.2311 20.11 15.9942 20.1172 14.0006 20.1172C12.0069 20.1172 11.7701 20.11 10.983 20.0742C10.2555 20.0406 9.86059 19.9186 9.59729 19.8164C9.24884 19.6811 8.99925 19.5191 8.73792 19.2578C8.47688 18.9967 8.31488 18.7487 8.17932 18.4004C8.07712 18.1375 7.95562 17.7417 7.92249 17.0137C7.88672 16.2267 7.87952 15.9898 7.87952 13.9961C7.87952 12.0027 7.88672 11.7673 7.92249 10.9805C7.95577 10.2525 8.07712 9.85695 8.17932 9.59375C8.3146 9.24544 8.47676 8.99657 8.73792 8.73535C8.99925 8.47402 9.24884 8.3124 9.59729 8.17676C9.86044 8.07412 10.2554 7.95242 10.983 7.91895C11.6718 7.88784 11.9392 7.87851 13.3307 7.87695V7.87891ZM14.0006 10.166C11.8831 10.1661 10.1667 11.8825 10.1666 14C10.1666 16.1175 11.8831 17.8339 14.0006 17.834C16.1182 17.834 17.8346 16.1176 17.8346 14C17.8345 11.8824 16.1182 10.166 14.0006 10.166ZM17.9869 9.11816C17.4923 9.11816 17.0905 9.51982 17.0905 10.0146C17.0906 10.5092 17.4924 10.9102 17.9869 10.9102C18.4813 10.9099 18.8823 10.509 18.8824 10.0146C18.8824 9.52011 18.4814 9.11838 17.9869 9.11816Z" fill="white"/>
<path d="M14.0006 11.5112C15.3751 11.5112 16.4895 12.6255 16.4895 14.0001C16.4895 15.3746 15.3751 16.4891 14.0006 16.4891C12.626 16.4891 11.5117 15.3746 11.5117 14.0001C11.5117 12.6255 12.626 11.5112 14.0006 11.5112Z" fill="white"/>
</svg>
