<svg width="28" height="28" viewBox="0 0 28 28" fill="none" xmlns="http://www.w3.org/2000/svg">
<path d="M14 0C21.732 0 28 6.26801 28 14C28 21.732 21.732 28 14 28C6.26803 28 2.57719e-07 21.732 0 14C0 6.26803 6.26803 2.17343e-05 14 0ZM20.8789 9.59473C21.1138 8.65235 20.5191 8.22445 19.9033 8.50391L6.41797 13.7041C5.49746 14.0733 5.50265 14.5876 6.25 14.8164L9.71094 15.8965L17.7227 10.8418C18.1009 10.6125 18.4479 10.7354 18.1631 10.9883L11.6709 16.8467L11.4336 20.416C11.7832 20.4159 11.9376 20.2552 12.1328 20.0654L13.8145 18.4307L17.3135 21.0146C17.9573 21.3699 18.4217 21.186 18.582 20.417L20.8789 9.59473Z" fill="white"/>
</svg>
