<svg width="25" height="25" viewBox="0 0 25 25" fill="none" xmlns="http://www.w3.org/2000/svg">
<g clip-path="url(#clip0_2128_9789)">
<rect width="24.5" height="24.5" rx="12.25" fill="#EF61B8"/>
<path d="M21.5833 0H2.91667C1.30842 0 0 1.30842 0 2.91667V21.5833C0 23.1916 1.30842 24.5 2.91667 24.5H21.5833C23.1916 24.5 24.5 23.1916 24.5 21.5833V2.91667C24.5 1.30842 23.1916 0 21.5833 0ZM19.2535 10.6884C19.1211 10.7007 18.9869 10.7088 18.851 10.7088C17.3209 10.7088 15.9763 9.92192 15.1941 8.7325C15.1941 11.8527 15.1941 15.4029 15.1941 15.4624C15.1941 18.2093 12.9669 20.4365 10.22 20.4365C7.47308 20.4365 5.24592 18.2093 5.24592 15.4624C5.24592 12.7155 7.47308 10.4883 10.22 10.4883C10.3238 10.4883 10.4253 10.4977 10.5274 10.5041V12.9552C10.4253 12.943 10.325 12.9243 10.22 12.9243C8.81767 12.9243 7.68133 14.0607 7.68133 15.463C7.68133 16.8653 8.81767 18.0017 10.22 18.0017C11.6223 18.0017 12.8608 16.8968 12.8608 15.4945C12.8608 15.4391 12.8853 4.06467 12.8853 4.06467H15.2279C15.4484 6.15942 17.1395 7.81258 19.2535 7.96425V10.6884Z" fill="white"/>
</g>
<defs>
<clipPath id="clip0_2128_9789">
<rect width="24.5" height="24.5" rx="12.25" fill="white"/>
</clipPath>
</defs>
</svg>
