<svg width="28" height="28" viewBox="0 0 28 28" fill="none" xmlns="http://www.w3.org/2000/svg">
<path d="M14 0C21.732 2.57703e-07 28 6.26801 28 14C28 21.732 21.732 28 14 28C6.26801 28 2.5772e-07 21.732 0 14C0 6.26801 6.26801 0 14 0ZM13.7148 10.2676C12.9137 10.2597 12.2357 10.2699 11.8516 10.4541C11.5959 10.5767 11.399 10.8514 11.5195 10.8672C11.6678 10.8866 12.0034 10.9557 12.1816 11.1934C12.4117 11.5009 12.4043 12.1914 12.4043 12.1914C12.4065 12.2241 12.532 14.0943 12.0947 14.3281C11.7924 14.4899 11.3779 14.1592 10.4863 12.6475C10.0332 11.8789 9.68959 11.03 9.68457 11.0176C9.68457 11.0176 9.61808 10.8575 9.49902 10.7715C9.35514 10.6676 9.1543 10.6348 9.1543 10.6348L7.02148 10.6484C7.02148 10.6484 6.70085 10.6574 6.58301 10.7939C6.47912 10.9145 6.57418 11.1643 6.5752 11.167C6.5752 11.167 8.24501 15.0039 10.1367 16.9375C11.8714 18.7097 13.8408 18.5938 13.8408 18.5938H14.7334C14.7406 18.5929 15.0045 18.5615 15.1406 18.418C15.2668 18.2846 15.2627 18.0332 15.2627 18.0332C15.2625 18.0157 15.2501 16.8568 15.8018 16.6846C16.3495 16.5141 17.0534 17.8217 17.7998 18.3242C18.3576 18.6999 18.7822 18.6218 18.791 18.6201L20.7861 18.5938C20.8011 18.5928 21.8247 18.5247 21.334 17.7256C21.2931 17.6596 21.0457 17.1293 19.8516 16.041C18.6006 14.9019 18.7685 15.0859 20.2744 13.1152C21.1915 11.9154 21.5587 11.1826 21.4443 10.8691C21.3355 10.5695 20.6602 10.6484 20.6602 10.6484L18.415 10.6621C18.4104 10.6615 18.2467 10.6415 18.125 10.7129C18.0065 10.7828 17.9292 10.944 17.9268 10.9492C17.9268 10.9492 17.5717 11.8779 17.0977 12.668C16.0978 14.334 15.6978 14.4226 15.5342 14.3193C15.1537 14.0778 15.249 13.3499 15.249 12.833C15.249 11.2177 15.4982 10.5443 14.7627 10.3701C14.5189 10.3121 14.339 10.274 13.7148 10.2676Z" fill="white"/>
</svg>
