<svg width="28" height="28" viewBox="0 0 28 28" fill="none" xmlns="http://www.w3.org/2000/svg">
<path d="M14 0C21.732 2.57703e-07 28 6.26801 28 14C28 21.732 21.732 28 14 28C6.26801 28 2.5772e-07 21.732 0 14C0 6.26801 6.26801 0 14 0ZM14.4609 5.13281C9.87248 5.13291 6.13762 8.86715 6.13574 13.457C6.13512 14.9242 6.51857 16.3566 7.24707 17.6191L6.06641 21.9326L10.4795 20.7754C11.6954 21.4386 13.0648 21.7876 14.458 21.7881H14.4609C19.0508 21.7862 22.7842 18.0527 22.7861 13.4639C22.787 11.2395 21.9213 9.14771 20.3496 7.57422C18.7779 6.00081 16.6878 5.13377 14.4609 5.13281Z" fill="white"/>
<path d="M14.4639 6.53711C16.3119 6.53775 18.0491 7.25862 19.3555 8.56641C20.6617 9.87418 21.3815 11.6123 21.3809 13.4609C21.3793 17.276 18.2754 20.3806 14.4619 20.3809H14.459C13.2174 20.3804 11.9989 20.0464 10.9365 19.416L10.6846 19.2666L8.06543 19.9531L8.76465 17.4004L8.59961 17.1377C7.90721 16.0362 7.5415 14.7632 7.54199 13.4561C7.54351 9.64117 10.6474 6.53727 14.4639 6.53711ZM11.5127 9.61133C11.374 9.61145 11.1484 9.66406 10.958 9.87207C10.767 10.0806 10.2306 10.5838 10.2305 11.6064C10.2305 12.6303 10.9761 13.62 11.0801 13.7588C11.1851 13.8993 12.5473 15.9987 14.6328 16.8994C15.1291 17.1137 15.5172 17.242 15.8193 17.3379C16.3174 17.4961 16.7707 17.4735 17.1289 17.4199C17.5286 17.3602 18.3598 16.9165 18.5332 16.4307C18.7062 15.9452 18.7061 15.5295 18.6543 15.4424C18.6023 15.3556 18.4638 15.3034 18.2559 15.1992C18.048 15.0952 17.0269 14.5926 16.835 14.5225C16.6444 14.4531 16.5048 14.4179 16.3662 14.626C16.2276 14.8342 15.8294 15.3036 15.708 15.4424C15.5867 15.581 15.4647 15.5983 15.2568 15.4941C15.0485 15.39 14.3789 15.17 13.585 14.4619C12.9667 13.9104 12.5491 13.2289 12.4277 13.0205C12.3064 12.8123 12.4144 12.6994 12.5186 12.5957C12.6121 12.5025 12.7262 12.3528 12.8301 12.2314C12.934 12.1101 12.9688 12.0234 13.0381 11.8848C13.1073 11.746 13.0734 11.6246 13.0215 11.5205C12.9695 11.4164 12.5532 10.3921 12.3799 9.97559C12.2112 9.57044 12.0397 9.62545 11.9121 9.61914C11.7909 9.61305 11.6513 9.61133 11.5127 9.61133Z" fill="white"/>
</svg>
