<svg width="28" height="28" viewBox="0 0 28 28" fill="none" xmlns="http://www.w3.org/2000/svg">
<path d="M0 14C0 6.26801 6.26801 0 14 0C21.732 0 28 6.26801 28 14C28 21.732 21.732 28 14 28C6.26801 28 0 21.732 0 14Z" fill="#EF61B8"/>
<path d="M14 0C21.732 2.57703e-07 28 6.26801 28 14C28 21.732 21.732 28 14 28C6.26801 28 2.5772e-07 21.732 0 14C0 6.26801 6.26801 0 14 0ZM14 8.86719C14 8.86719 9.32958 8.86706 8.16504 9.1875C7.52272 9.36392 7.01646 9.88342 6.84473 10.543C6.53518 11.7294 6.53322 14.1949 6.5332 14.2334C6.5332 14.2334 6.53274 16.729 6.84473 17.9248C7.01647 18.5843 7.52274 19.1038 8.16504 19.2803C9.32958 19.6006 14 19.6006 14 19.6006C14.0283 19.6006 18.6728 19.5996 19.834 19.2803C20.4764 19.1039 20.9825 18.5844 21.1543 17.9248C21.4664 16.729 21.4668 14.2334 21.4668 14.2334C21.4668 14.1949 21.4639 11.7294 21.1543 10.543C20.9825 9.88335 20.4764 9.3638 19.834 9.1875C18.6728 8.86808 14.0283 8.86719 14 8.86719Z" fill="white"/>
<path d="M12.6016 16.7995V12.1328L16.3349 14.4662L12.6016 16.7995Z" fill="white"/>
</svg>
