<svg width="107" height="108" viewBox="0 0 107 108" fill="none" xmlns="http://www.w3.org/2000/svg">
<path d="M55.9387 90.9287C55.621 90.9379 55.3014 90.9469 54.9857 90.9563C54.5995 90.9479 54.2134 90.9395 53.8273 90.9311C53.3909 90.9203 52.9543 90.9114 52.5197 90.9007C50.7069 90.7565 48.892 90.614 47.0773 90.4696C46.4369 90.3673 45.7985 90.2652 45.16 90.1631C44.839 90.1216 44.5181 90.0781 44.1952 90.0364C43.7513 89.9551 43.3075 89.8719 42.8655 89.7907C42.5413 89.7412 42.2173 89.6897 41.893 89.6401C41.6512 89.5822 41.4092 89.5263 41.1674 89.4683C40.0675 89.1961 38.9675 88.9238 37.8657 88.6514C37.6869 88.6068 37.5061 88.5619 37.329 88.5194C36.4861 88.2869 35.6413 88.0543 34.7965 87.8217C34.6334 87.7746 34.4704 87.7274 34.3071 87.6822C34.2331 87.6621 34.1569 87.6439 34.0828 87.6238C33.909 87.566 33.7331 87.51 33.5612 87.4524C32.8652 87.2075 32.1674 86.9605 31.4695 86.7155C31.1622 86.6054 30.855 86.4952 30.5496 86.3852C29.8424 86.0909 29.1332 85.7964 28.4259 85.5021C28.1953 85.4044 27.9628 85.3066 27.7341 85.2091C26.4134 84.5258 25.0929 83.8406 23.7723 83.1554C23.1733 82.8239 22.574 82.4944 21.9769 82.1631C21.762 82.0416 21.5452 81.9199 21.3285 81.7963C20.6825 81.4006 20.0345 81.0067 19.3886 80.611C19.1827 80.4748 18.977 80.3366 18.7713 80.1984C18.6742 80.1085 18.577 80.0186 18.4818 79.9288C18.3932 79.8746 18.3046 79.8203 18.2162 79.7641C18.0627 79.6518 17.9093 79.5376 17.7558 79.4253C17.6118 79.3158 17.4658 79.2061 17.3198 79.0964C17.2203 79.0121 17.1188 78.9276 17.0211 78.8435C16.9369 78.7838 16.8506 78.7258 16.7644 78.6659C12.8577 75.5773 9.59131 71.9877 7.41408 67.4319C5.93709 64.3453 4.98914 61.1437 4.45506 57.7881C3.61569 52.5127 4.22853 47.4375 6.75193 42.7011C8.06437 40.2414 9.59097 37.8895 11.0999 35.54C11.5137 34.8951 11.703 34.3064 11.6216 33.5661C11.123 29.0439 11.0455 24.5293 11.5246 19.9855C12.021 15.2881 13.3328 10.8478 15.2341 6.55781C16.6977 3.2558 19.4733 1.67407 22.8892 1.31191C24.0841 1.18509 25.4645 1.65245 26.5869 2.2021C30.7339 4.22735 33.967 7.35046 36.4989 11.1593C38.3483 13.9428 40.0368 16.8325 41.7442 19.7064C42.1645 20.4161 42.5896 20.7363 43.4633 20.7483C50.5622 20.8425 57.5666 21.6423 64.3182 23.9622C65.4375 24.3467 65.9752 24.1549 66.7461 23.2483C69.7366 19.7339 73.6323 17.4777 77.9144 15.8971C81.6301 14.5252 85.3742 13.1849 89.4045 13.045C91.4675 12.9724 93.4695 13.2883 95.2994 14.2855C97.3966 15.4282 98.5727 17.2375 98.8456 19.5967C99.2019 22.6711 98.7708 25.7041 98.2343 28.7183C97.267 34.1584 95.6935 39.4391 93.2995 44.4078C92.2961 46.489 91.9248 48.2975 92.5412 50.574C93.0785 52.5528 92.9408 54.7152 93.0921 56.7961C93.1221 57.2099 93.1131 57.6262 93.1225 58.1216C93.9874 58.0786 94.8515 58.4467 95.5248 57.6577C95.7196 57.9656 96.124 58.3887 95.4116 58.4664C93.7653 58.6431 92.1078 58.7238 90.4567 58.8439C90.3012 55.4262 89.9017 52.0435 88.6814 48.8221C88.2658 47.7229 88.5782 46.9704 89.2744 46.1407C91.1912 43.8615 92.6995 41.3412 93.5606 38.4601C94.7367 34.5298 95.4053 30.534 95.5689 26.4205C95.7005 23.0995 95.6101 19.895 94.3658 16.7259C93.755 15.1675 91.3821 13.9096 89.838 14.8091C88.8961 15.3575 87.7312 15.5858 86.6343 15.7929C83.138 16.4527 79.7948 17.5427 76.55 18.9983C74.1912 20.0576 72.2276 21.6674 70.2914 23.2989C69.1459 24.2641 68.1908 25.4553 67.1441 26.5377C66.798 26.8956 66.4678 27.1384 65.8811 26.8875C62.0065 25.239 57.9678 24.1581 53.8065 23.5243C50.0021 22.9449 46.1819 22.6143 42.3356 23.0069C41.3196 23.1105 40.9859 22.4336 40.6254 21.7505C40.3118 21.1548 40.09 20.509 39.7621 19.9218C38.0163 16.7963 35.9196 13.9292 33.511 11.2717C31.4996 9.05405 29.24 7.20861 26.5609 5.85038C25.4419 5.28357 24.2168 4.82002 23.5513 3.57693C23.3974 3.29004 22.7537 3.04779 22.4091 3.1206C21.6723 3.27759 20.9522 3.59898 20.2779 3.95344C18.858 4.70077 18.1605 6.05799 17.5425 7.44152C14.9231 13.3023 13.887 19.4657 14.0697 25.8536C14.1082 27.1759 14.2597 28.4945 14.3548 29.8141C14.4262 30.825 14.4209 31.8468 14.5751 32.8437C14.7786 34.1687 14.4548 35.1415 13.5306 36.2229C10.2448 40.0704 8.26394 44.5591 7.58256 49.5954C7.01837 53.7768 7.8337 57.7873 9.06542 61.7488L9.06844 61.7587L9.23894 62.3012L9.26034 62.3457C9.41624 62.7879 9.57424 63.2284 9.73014 63.6707C9.76806 63.771 9.80599 63.8713 9.84408 63.9696L10.0659 64.4583C10.5531 65.3154 11.0424 66.1708 11.5296 67.0278C11.7104 67.3404 11.891 67.6548 12.0699 67.9671C12.2556 68.2684 12.443 68.5718 12.6287 68.8731C12.8985 69.2574 13.17 69.6438 13.4398 70.028C13.8175 70.4682 14.1971 70.9086 14.5748 71.3488C14.6113 71.3986 14.648 71.4464 14.6845 71.4961C15.1823 72.0748 15.6803 72.6516 16.1762 73.2301L17.1632 74.218C17.5561 74.5955 17.947 74.9729 18.3399 75.3504C18.4289 75.4221 18.5158 75.4957 18.6048 75.5674C18.8612 75.7934 19.1195 76.0196 19.3759 76.2455C19.4772 76.332 19.5768 76.4163 19.6781 76.5027C19.8285 76.6283 19.979 76.7539 20.1294 76.8795C20.2188 76.9687 20.3103 77.0562 20.3997 77.1455C20.484 77.2052 20.5661 77.2666 20.6503 77.3263C20.7532 77.3954 20.856 77.4645 20.9589 77.5336C21.461 77.907 21.9611 78.2803 22.4632 78.6538C22.5715 78.7272 22.6779 78.8005 22.7862 78.8739C23.8372 79.5512 24.8865 80.2264 25.9375 80.9037C26.1136 81.0024 26.2897 81.1011 26.4658 81.1999C26.8545 81.4684 27.2223 81.7759 27.6386 81.9964C30.9296 83.7396 34.3762 85.1025 37.9805 86.037C39.6116 86.4602 41.294 86.6959 42.9515 87.0167C43.1236 87.0491 43.2959 87.0796 43.468 87.1121C44.3636 87.2308 45.2611 87.3496 46.1564 87.4702C46.3426 87.4981 46.5289 87.524 46.717 87.552C47.2514 87.5985 47.7881 87.6413 48.3225 87.6879C48.8981 87.7302 49.4737 87.7725 50.0493 87.8149C50.7013 87.829 51.3532 87.843 52.0032 87.857C52.3213 87.8652 52.6396 87.8716 52.9576 87.8799C54.3894 87.8687 55.8438 88.0206 57.2442 87.8108C60.1829 87.3702 63.0984 86.7725 66.0091 86.1626C66.829 85.9896 67.5925 85.5479 68.3842 85.2288C68.6635 84.8788 68.995 84.5546 69.2019 84.1653C69.3253 83.9316 69.3764 83.5229 69.2525 83.3162C67.2269 79.9219 67.2996 76.5628 69.313 73.1962C69.4381 72.9879 69.4438 72.5869 69.326 72.3768C68.9926 71.7853 68.8129 71.1257 69.3454 70.7026C69.7965 70.3442 70.6165 69.9908 71.058 70.167C72.1681 70.6127 73.1209 70.2747 74.1359 70.0256C74.4736 69.9425 74.8384 69.9277 75.1886 69.9465C77.6729 70.0813 79.6762 71.1867 81.3263 72.9985C82.0502 73.7947 82.795 74.5734 83.5597 75.3906C84.2995 74.4405 85.1937 73.4574 85.8966 72.3508C86.8381 70.8694 87.6323 69.2936 88.4891 67.7583C89.2861 67.7132 90.082 67.637 90.8787 67.6404C91.2848 67.6428 91.692 67.7888 92.0991 67.8688C91.541 70.596 90.2834 73.0062 88.663 75.2296C87.8351 76.366 86.8885 77.4145 85.8968 78.6239C87.7107 79.6488 89.4574 80.664 91.2318 81.6293C93.5446 82.8858 95.9124 84.0462 98.1889 85.3617C99.2808 85.994 99.3717 87.2278 99.2942 88.3636C99.1279 90.766 98.1726 92.9193 96.9025 94.9153C95.5264 97.0785 94.149 99.2572 92.5684 101.269C90.9462 103.335 89.162 105.296 86.727 106.515C85.5888 107.086 84.5774 107.114 83.633 106.194C82.5366 105.123 81.4445 104.046 80.524 103.142C79.1287 103.449 77.8108 103.984 76.4932 103.98C72.962 103.969 69.9008 99.8311 70.9225 96.3122C71.1226 95.6216 71.0104 95.2355 70.3747 94.8116C68.8459 93.794 67.8423 92.3702 67.5349 90.5201L67.5228 90.4803C67.467 90.2504 67.4129 90.0227 67.3591 89.793L67.3965 89.7419L67.3541 89.6936C67.308 89.2182 67.0911 89.052 66.6051 89.2094C66.1888 89.3458 65.7515 89.4125 65.3251 89.5092C65.2203 89.5292 65.1135 89.5509 65.0085 89.5728C64.7695 89.6393 64.5283 89.7076 64.2893 89.774L64.2394 89.7891C63.5171 89.9357 62.7928 90.0822 62.0705 90.2288C61.731 90.2884 61.3893 90.3499 61.0478 90.4094C60.8626 90.4379 60.6772 90.4683 60.492 90.4968C58.977 90.6384 57.4619 90.782 55.9469 90.9236L55.9387 90.9287ZM80.6776 93.5612C81.1989 94.138 81.9234 94.6356 82.1911 95.3126C82.5478 96.2165 82.5501 97.2622 82.7056 98.2456C82.1498 99.427 81.5828 100.604 81.0588 101.799C80.9983 101.936 81.1361 102.229 81.2696 102.371C82.2335 103.401 83.1692 104.466 84.2143 105.412C85.3007 106.397 85.3466 106.339 86.5371 105.504C90.0095 103.063 92.8513 100.052 94.9797 96.3695C96.5199 93.7046 97.7807 90.9455 98.256 87.8736C98.3799 87.0756 98.3832 86.5017 97.447 86.0245C94.1856 84.3653 91.0062 82.5465 87.7756 80.8241C86.1408 79.9525 84.6333 78.9581 83.5243 77.4281C82.6372 76.2065 81.6487 75.0575 80.7679 73.8306C79.1473 71.5674 75.3314 70.3391 73.4156 71.1093C71.9228 71.7106 70.7748 72.6387 69.9562 74.0261C68.3755 76.7089 68.1517 79.436 69.8415 82.1105C70.7229 83.5082 71.8654 84.7424 72.8085 85.9456C72.5926 85.9695 71.7755 85.5072 70.3574 84.5587C67.955 86.6094 67.6008 90.2097 69.5546 92.7094C71.1936 94.8053 72.9245 95.3769 75.4771 94.571C76.3785 94.2868 77.2285 93.8351 78.101 93.4591C78.9592 93.4931 79.8192 93.5291 80.6774 93.5631L80.6776 93.5612ZM76.2778 102.949C78.0574 103.005 79.7487 102.669 80.6665 101.259C81.436 100.079 81.9231 98.548 82.0168 97.1363C82.1854 94.5963 80.4393 93.1273 78.0081 94.2133C77.2395 94.5576 76.4715 94.9602 75.6605 95.1437C74.689 95.3617 73.6614 95.3305 72.6746 95.5006C72.4043 95.5469 72.0808 95.8912 71.9727 96.1728C71.3734 97.7422 71.8129 99.1479 72.6296 100.552C73.4887 102.027 74.7373 102.735 76.2758 102.948L76.2778 102.949ZM67.5134 87.4613C67.5327 87.463 67.552 87.4647 67.5713 87.4663L67.6005 87.1314C67.5812 87.1297 67.5619 87.128 67.5426 87.1263L67.5134 87.4613ZM67.8271 86.3364C67.8107 86.3912 67.7906 86.4438 67.7801 86.4972C67.7792 86.5068 67.8145 86.5254 67.8328 86.5386C67.851 86.4859 67.8712 86.4334 67.8818 86.378C67.8826 86.3684 67.8473 86.3498 67.8273 86.3345L67.8271 86.3364Z" fill="#EFEEEE"/>
<path d="M105.813 57.6025C106.705 58.0255 106.425 58.744 106.115 59.3029C105.781 59.9061 105.266 60.4199 104.777 60.9224C104.41 61.3017 104.318 61.5478 104.675 62.0444C105.154 62.7107 105.542 63.4757 105.809 64.2516C106.21 65.4251 105.587 66.1293 104.362 66.0284C104.298 66.0229 104.227 66.0323 104.171 66.008C102.012 65.0829 100.395 66.0439 98.8061 67.4109C98.0854 68.0309 97.1778 68.5862 96.2666 68.8036C94.893 69.1302 94.5402 68.6941 94.4879 67.196C94.4872 66.4666 94.4887 65.7354 94.4882 65.0041C94.5085 64.7479 94.5289 64.4917 94.5493 64.2355C94.5303 63.9623 94.4978 63.6879 94.4925 63.4139C94.4867 63.1011 94.5061 62.7886 94.5139 62.475C94.7594 62.5139 95.0031 62.5506 95.2485 62.5894C95.2183 64.1424 95.1667 65.6955 95.1793 67.2484C95.181 67.4968 95.459 67.7422 95.6106 67.9881L95.6141 67.9923L95.9576 68.222C96.3622 68.1078 96.8731 68.1116 97.1497 67.8602C98.1375 66.9628 99.0798 66.009 99.9749 65.0162C100.504 64.4299 101.004 64.2678 101.749 64.5828C102.452 64.8807 103.198 65.1241 103.948 65.2379C104.323 65.2957 104.958 65.1163 105.096 64.849C105.269 64.5149 105.169 63.9185 104.976 63.5467C104.672 62.9596 104.209 62.4461 103.775 61.9331C103.433 61.529 103.353 61.2504 103.794 60.8096C104.394 60.2063 104.871 59.4817 105.4 58.81C105.538 58.4089 105.678 58.0079 105.816 57.6086L105.813 57.6025Z" fill="#EFEEEE"/>
<path d="M90.4507 58.8472C92.1038 58.7273 93.7591 58.6483 95.4056 58.4696C96.1179 58.3939 95.7136 57.9688 95.5188 57.6609C95.7419 56.9297 95.9326 56.1898 96.1952 55.4736C96.7557 53.9474 97.2112 53.8066 98.5438 54.7101C98.7237 54.8325 98.8636 55.0115 99.0215 55.1629C99.0945 55.2178 99.1675 55.2726 99.2405 55.3275L99.2235 55.2988C99.3559 55.7216 99.488 56.1462 99.6223 56.5691C99.3408 56.2517 99.0986 55.8854 98.7688 55.6317C98.3661 55.3231 97.8671 54.8918 97.4514 54.9332C97.1515 54.9614 96.8564 55.6495 96.6742 56.0895C96.5464 56.3965 96.6427 56.787 96.5874 57.1313C96.3011 58.8793 96.7436 59.201 94.5946 59.2118C93.9334 59.2144 93.2744 59.4382 92.6112 59.4639C91.8719 59.4927 91.1287 59.4105 90.3871 59.377C90.4083 59.2004 90.4316 59.022 90.4528 58.8454L90.4507 58.8472Z" fill="#FDFDFD"/>
<path d="M94.4864 65.0022C94.4869 65.7335 94.4855 66.4646 94.4861 67.194C94.4071 66.9408 94.3279 66.6895 94.2 66.2827C93.4095 66.8772 92.752 67.3747 92.0945 67.8703C91.6876 67.7884 91.2823 67.6425 90.8742 67.6419C90.0774 67.6385 89.2814 67.7166 88.4844 67.7617C88.5067 67.6395 88.5272 67.5152 88.5497 67.3911C90.8945 67.4982 93.0007 67.0182 94.4864 65.0022Z" fill="#FDFDFD"/>
<path d="M105.813 57.6029C105.675 58.004 105.535 58.405 105.396 58.8041C105.285 57.6907 105.06 57.5082 103.925 57.6965C103.079 57.8363 102.244 58.0991 101.397 58.134C101.017 58.1494 100.619 57.7404 100.227 57.524L102.581 57.7289L102.615 57.5204C102.518 57.4499 102.421 57.3775 102.322 57.3068C103.085 57.216 103.848 57.0458 104.608 57.0654C105.014 57.0755 105.41 57.4126 105.809 57.6026L105.813 57.6029Z" fill="#FDFDFD"/>
<path d="M102.324 57.3067C102.421 57.3772 102.518 57.4497 102.616 57.5203L102.583 57.7288C101.797 57.6605 101.012 57.5921 100.229 57.5239L100.222 57.5194C100.031 57.2099 99.8402 56.8985 99.6494 56.589L99.6256 56.5714C99.4933 56.1487 99.3611 55.724 99.2288 55.3013C100.074 55.9723 100.92 56.6433 101.766 57.3124L101.785 57.3141C101.966 57.3124 102.147 57.3088 102.328 57.3071L102.324 57.3067Z" fill="#EFEEEE"/>
<path d="M47.0768 90.4717C48.8915 90.6161 50.7064 90.7585 52.5192 90.9027C50.7045 90.7584 48.8896 90.6159 47.0768 90.4717Z" fill="#FDFDFD"/>
<path d="M55.9378 90.9284C57.453 90.7849 58.968 90.6433 60.483 90.5016C58.9678 90.6452 57.4528 90.7868 55.9378 90.9284Z" fill="#FDFDFD"/>
<path d="M37.8673 88.6517C38.9672 88.9239 40.069 89.1963 41.1689 89.4686C40.0671 89.1962 38.9672 88.9239 37.8673 88.6517Z" fill="#FDFDFD"/>
<path d="M34.7981 87.8218C35.6429 88.0544 36.4877 88.287 37.3306 88.5194C36.4858 88.2868 35.641 88.0542 34.7981 87.8218Z" fill="#FDFDFD"/>
<path d="M28.4261 85.502C29.1353 85.7964 29.8425 86.0908 30.5498 86.3851C29.8406 86.0906 29.1333 85.7963 28.4261 85.502Z" fill="#FDFDFD"/>
<path d="M31.4691 86.7139C32.167 86.9589 32.8648 87.2058 33.5608 87.4507C32.8628 87.2057 32.1651 86.9587 31.4691 86.7139Z" fill="#FDFDFD"/>
<path d="M44.1948 90.0384C44.5177 90.0801 44.8386 90.1235 45.1596 90.165C44.8366 90.1234 44.5158 90.0799 44.1948 90.0384Z" fill="#FDFDFD"/>
<path d="M61.0395 90.4147C61.3809 90.3552 61.7226 90.2938 62.0621 90.2341C61.7207 90.2936 61.3809 90.3552 61.0395 90.4147Z" fill="#FDFDFD"/>
<path d="M21.3265 81.7983C21.5433 81.92 21.76 82.0436 21.9749 82.1651C21.7581 82.0435 21.5414 81.9199 21.3265 81.7983Z" fill="#FDFDFD"/>
<path d="M17.3148 79.1001C17.4607 79.2098 17.6067 79.3195 17.7507 79.429C17.6048 79.3193 17.4588 79.2096 17.3148 79.1001Z" fill="#FDFDFD"/>
<path d="M65.0002 89.576C65.107 89.5542 65.2118 89.5342 65.3167 89.5123C65.2099 89.5341 65.1051 89.5541 65.0002 89.576Z" fill="#FDFDFD"/>
<path d="M34.0823 87.6235C34.1583 87.6437 34.2325 87.6618 34.3066 87.6819C34.2306 87.6617 34.1563 87.6436 34.0823 87.6235Z" fill="#FDFDFD"/>
<path d="M16.7583 78.6676C16.8445 78.7275 16.9306 78.7873 17.015 78.8451C16.9288 78.7853 16.8427 78.7254 16.7583 78.6676Z" fill="#FDFDFD"/>
<path d="M101.782 57.3148L101.763 57.3131L101.788 57.268L101.782 57.3148Z" fill="#FDFDFD"/>
<path d="M67.3458 89.697L67.3883 89.7455C67.3883 89.7455 67.3527 89.797 67.3507 89.7968L67.3041 89.7499L67.3458 89.697Z" fill="#FDFDFD"/>
<path d="M64.231 89.7942L64.2811 89.7791L64.2706 89.8328L64.231 89.7942Z" fill="#FDFDFD"/>
<path d="M67.5166 90.4819L67.5287 90.5219L67.4748 90.5133L67.5166 90.4819Z" fill="#FDFDFD"/>
<path d="M88.548 67.3908C88.5256 67.5149 88.5052 67.6372 88.4827 67.7614C87.6259 69.2967 86.8317 70.8725 85.8902 72.3539C85.1875 73.4585 84.2931 74.4437 83.5533 75.3937C82.7887 74.5746 82.0438 73.7978 81.32 73.0016C79.668 71.1877 77.6667 70.0825 75.1823 69.9496C74.834 69.931 74.4672 69.9456 74.1295 70.0287C73.1126 70.2777 72.1615 70.6178 71.0516 70.1701C70.6103 69.992 69.7901 70.3473 69.339 70.7057C68.8065 71.1288 68.9843 71.7882 69.3197 72.3799C69.4374 72.59 69.4317 72.991 69.3067 73.1993C67.2932 76.5659 67.2205 79.925 69.2461 83.3193C69.37 83.526 69.3208 83.9349 69.1955 84.1684C68.9886 84.5577 68.6573 84.88 68.378 85.23C68.287 85.226 68.1866 85.1959 68.1064 85.2238C64.4535 86.4324 60.7039 87.1884 56.8765 87.5652C55.5707 87.694 54.2609 87.7778 52.9532 87.8832C52.6351 87.8749 52.3169 87.8685 51.9988 87.8602C51.3468 87.8461 50.6949 87.8321 50.0429 87.818C49.4673 87.7757 48.8917 87.7333 48.3161 87.691C47.7817 87.6444 47.245 87.6016 46.7086 87.5549C46.5225 87.5271 46.3362 87.5012 46.1501 87.4733C45.2545 87.3546 44.357 87.2358 43.4597 87.115C43.2876 87.0826 43.1153 87.0521 42.9451 87.0198C40.7392 86.4553 38.4678 86.0637 36.337 85.2846C32.9931 84.0606 29.7455 82.5772 26.4574 81.2028C26.2814 81.1041 26.1053 81.0053 25.931 80.9087C24.8819 80.2316 23.8287 79.5561 22.7777 78.8788C22.6694 78.8053 22.563 78.7321 22.4565 78.6607C21.9563 78.2874 21.4542 77.914 20.9522 77.5405C20.8493 77.4715 20.7465 77.4024 20.6436 77.3333C20.5613 77.2737 20.4773 77.2121 20.3932 77.1505C20.3038 77.0612 20.2123 76.9737 20.1227 76.8864C19.9722 76.7608 19.8218 76.6352 19.6716 76.5077C19.5702 76.4213 19.4707 76.337 19.3713 76.2507C19.1149 76.0248 18.8566 75.7986 18.5983 75.5724C18.5093 75.5007 18.4224 75.4272 18.3353 75.3556C17.9424 74.9781 17.5496 74.6005 17.1569 74.2211C16.8278 73.8918 16.4988 73.5625 16.1716 73.2353C15.6737 72.6566 15.1759 72.0779 14.6781 71.4992C14.6416 71.4495 14.6049 71.4017 14.5704 71.3521C14.1927 70.9119 13.8131 70.4715 13.4354 70.0313C13.1656 69.647 12.894 69.2607 12.6242 68.8764C12.4385 68.5751 12.2511 68.2717 12.0655 67.9704C11.8847 67.6579 11.704 67.3435 11.5251 67.0311C11.0378 66.1759 10.5487 65.3187 10.0615 64.4616C9.98822 64.2981 9.91287 64.1364 9.83946 63.9748C9.80153 63.8745 9.76361 63.7742 9.72375 63.6738C9.56785 63.2315 9.40986 62.7911 9.25396 62.3488L9.28868 62.3072L9.23273 62.3023C9.17643 62.1229 9.12029 61.9415 9.06222 61.7599L9.10006 61.7496L9.05921 61.7499C7.82749 57.7885 7.01215 53.778 7.57635 49.5966C8.2558 44.5601 10.2388 40.0697 13.5244 36.2241C14.4467 35.1425 14.7705 34.1698 14.5689 32.8448C14.4166 31.8482 14.4219 30.8264 14.3486 29.8152C14.2535 28.4957 14.102 27.1771 14.0635 25.8547C13.8806 19.4688 14.9169 13.3035 17.5362 7.4427C18.1543 6.05917 18.8517 4.70195 20.2717 3.95462C20.946 3.60016 21.6661 3.27877 22.4029 3.12178C22.7494 3.04914 23.3914 3.28929 23.5451 3.57811C24.2106 4.8212 25.4376 5.28492 26.5547 5.85156C29.2338 7.20979 31.4953 9.0554 33.5048 11.2728C35.9133 13.9304 38.0101 16.7975 39.7559 19.923C40.0838 20.5102 40.3056 21.156 40.6192 21.7517C40.9777 22.4346 41.3134 23.1117 42.3294 23.0081C46.1756 22.6155 49.9959 22.9461 53.8003 23.5255C57.9596 24.1591 62.0003 25.2402 65.8749 26.8887C66.4617 27.1376 66.7918 26.8967 67.1378 26.5389C68.1846 25.4565 69.1397 24.2652 70.2851 23.3C72.2235 21.6668 74.185 20.0588 76.5438 18.9994C79.7886 17.5439 83.1318 16.4538 86.6281 15.7941C87.725 15.587 88.8899 15.3587 89.8318 14.8102C91.3759 13.9108 93.7469 15.1685 94.3596 16.727C95.6039 19.8962 95.6924 23.1006 95.5627 26.4217C95.401 30.5353 94.7307 34.529 93.5544 38.4612C92.6932 41.3424 91.1871 43.8609 89.2682 46.1418C88.5721 46.9696 88.2597 47.7222 88.6752 48.8233C89.8936 52.0445 90.295 55.4274 90.4505 58.8451C90.4293 59.0217 90.406 59.2001 90.3848 59.3767C90.0445 59.9581 89.7178 60.5406 90.2768 61.1751C90.0453 62.2489 89.8158 63.323 89.5843 64.3968C89.1113 64.2916 88.6069 64.2574 88.1706 64.0662C86.9085 63.5141 85.7227 62.732 84.4167 62.3487C82.7259 61.8523 80.9796 61.9932 79.6323 63.3133C79.2774 63.6606 79.0408 64.48 79.1987 64.9224C79.4594 65.6569 80.1754 65.5602 80.8384 65.2241C81.965 64.653 83.1751 64.5973 84.2999 65.12C85.7533 65.7974 87.1372 66.6259 88.5501 67.389L88.548 67.3908ZM46.302 64.8695C43.4475 64.6773 40.5788 65.0056 37.9379 66.5583C33.1436 69.3784 32.9085 74.3799 35.6825 77.9305C37.4019 80.1304 39.728 81.5471 42.3438 82.3587C46.1995 83.5555 50.07 83.6442 53.8535 81.9174C56.1592 80.865 57.8951 79.2801 58.6358 76.823C59.5732 73.7137 58.3256 71.2309 56.1727 69.0747C53.487 66.3853 50.121 65.2582 46.302 64.8695ZM18.9738 44.8161C18.9689 45.2967 18.9736 45.5551 18.9629 45.8122C18.9513 46.1021 18.9302 46.3893 18.9108 46.6786C18.7001 50.1051 19.9042 53.0206 22.3703 55.3301C25.7977 58.5439 30.0089 60.1674 34.6206 60.7395C36.038 60.9152 37.5008 60.8156 38.9374 60.7254C39.8014 60.6706 40.3335 60.0516 40.4205 59.1863C40.7334 56.0828 40.7664 52.957 39.3244 50.1159C37.1292 45.7893 33.639 42.7835 29.1037 41.0425C26.9517 40.2171 24.7007 39.8136 22.3758 39.9468C20.3577 40.0621 19.6107 40.6934 19.2698 42.6442C19.131 43.4351 19.0514 44.2371 18.974 44.8142L18.9738 44.8161ZM93.9188 27.5084C94.3861 22.2517 94.1762 20.1967 93.0626 17.5801C92.5123 16.2869 91.9274 16.0828 90.6555 16.6257C88.5354 17.5333 86.8333 19.0203 85.2755 20.6362C83.7007 22.2682 82.234 24.022 80.8728 25.8355C79.4523 27.7272 78.2179 29.7593 76.8923 31.7232C76.4214 32.4213 76.6293 32.8467 77.2394 33.408C79.2696 35.2762 81.3398 37.1303 83.1522 39.2007C84.6425 40.9054 85.8065 42.898 87.0767 44.7872C87.6103 45.5805 87.8442 45.6843 88.3812 44.8756C89.0858 43.8158 89.6827 42.6748 90.2281 41.5235C92.4573 36.8178 93.4181 31.7865 93.9188 27.5084ZM15.27 33.835C15.6419 33.6055 15.8139 33.5274 15.9544 33.4096C17.0401 32.5052 18.0483 31.4854 19.2166 30.7045C22.5089 28.5024 25.8975 26.4659 29.7478 25.3346C30.873 25.0038 31.1432 24.5347 30.844 23.372C30.5314 22.1615 30.21 20.9406 29.7431 19.7827C28.7138 17.2258 27.626 14.6929 26.4978 12.1778C25.4626 9.86675 24.3569 7.58444 23.259 5.30089C22.7061 4.14907 21.9006 3.91213 20.8466 4.58657C19.6565 5.35003 18.7935 6.39801 18.2103 7.69341C16.5264 11.4282 15.6687 15.3862 15.3306 19.4263C15.0364 22.9406 15.0293 26.4839 14.9708 30.0149C14.9501 31.2351 15.1544 32.4613 15.2678 33.8387L15.27 33.835ZM47.2175 53.7707C46.9618 54.4079 46.7799 54.6888 46.742 54.9901C46.4949 56.9354 46.2091 58.8794 46.0758 60.8346C45.9812 62.2114 46.3952 62.6373 47.7506 62.8328C48.7372 62.9769 49.7408 63.0158 50.7383 63.0793C51.7554 63.1426 52.4358 62.6723 52.6222 61.6702C52.9625 59.8377 53.257 57.9954 53.5399 56.1521C53.5895 55.8286 53.4969 55.485 53.4525 54.9457C51.1144 55.9448 48.9043 56.6137 47.2194 53.7708L47.2175 53.7707ZM54.1444 44.2503C54.1258 43.7715 54.1521 43.1569 54.0681 42.558C53.9248 41.5466 53.285 40.9245 52.3316 40.7562C51.3493 40.5834 50.6095 40.9767 50.1485 41.8056C49.4019 43.1469 49.2217 44.5918 49.5951 46.0869C49.6453 46.291 49.7707 46.5929 49.9224 46.6371C50.7623 46.8809 51.637 47.2616 52.472 47.2043C53.2934 47.1478 53.803 46.3853 53.9579 45.522C54.0258 45.1438 54.0688 44.7616 54.1424 44.2501L54.1444 44.2503ZM64.8382 52.6451C63.0953 53.1044 60.1074 60.2075 60.783 62.1381C60.9686 61.9933 61.1309 61.8716 61.2878 61.7437C62.2269 60.9816 63.0814 60.0765 64.1148 59.4817C69.4704 56.4001 75.4025 55.1358 81.4251 54.1956C81.6124 54.1653 81.8105 54.1903 81.9962 54.1561C82.1719 54.1248 82.3399 54.0483 82.5119 53.9934C82.4845 53.9057 82.4573 53.816 82.428 53.7281C74.9671 54.1979 67.8937 55.9331 61.4731 60.3516C62.2039 57.5172 63.2209 54.9677 64.8361 52.6469L64.8382 52.6451ZM53.1791 51.9445C53.3297 50.3263 52.353 48.7283 51.1136 48.5622C49.9202 48.404 48.9279 48.95 48.4594 50.0226C47.7021 51.7548 47.8047 53.6356 48.7079 54.3582C48.8787 54.4952 49.0827 54.608 49.2901 54.6823C51.3661 55.443 52.9569 54.3187 53.1774 51.9424L53.1791 51.9445ZM51.0431 36.1962C51.0246 38.4408 51.0327 38.4144 52.8816 38.9031C53.6666 39.1092 54.1988 38.8684 54.3936 38.1483C54.6431 37.2254 54.9264 36.2491 54.8513 35.3251C54.8053 34.7586 54.2085 34.1111 53.6865 33.7437C53.1112 33.3406 52.3663 33.59 51.9812 34.1733C51.576 34.7859 51.3489 35.5187 51.0448 36.1983L51.0431 36.1962ZM52.5194 28.6823C52.504 28.6809 52.4885 28.6796 52.4729 28.6802C52.468 29.1608 52.4612 29.6413 52.4581 30.124C52.4535 30.9577 52.7587 31.539 53.6585 31.7201C54.5812 31.9071 55.2873 31.633 55.618 30.7598C55.89 30.0464 56.1298 29.2797 56.1522 28.531C56.1648 28.0957 55.8054 27.3564 55.4678 27.2591C54.6256 27.019 53.6898 26.4701 52.8168 27.2088C52.674 27.3302 52.6366 27.6043 52.5985 27.8182C52.5467 28.1008 52.5426 28.3933 52.5176 28.6802L52.5194 28.6823Z" fill="#0D0D0D"/>
<path d="M78.1009 93.4573C77.2284 93.8333 76.3785 94.285 75.477 94.5693C72.9244 95.3751 71.1935 94.8035 69.5545 92.7076C67.6007 90.2079 67.9549 86.6076 70.3573 84.557C71.7741 85.5053 72.5912 85.9676 72.8084 85.9438C71.8653 84.7406 70.7247 83.5066 69.8414 82.1088C68.1536 79.4344 68.3773 76.7072 69.9561 74.0243C70.7728 72.6367 71.9227 71.7088 73.4155 71.1075C75.3293 70.3372 79.1472 71.5656 80.7678 73.8288C81.6466 75.0555 82.6372 76.2047 83.5242 77.4263C84.6332 78.9563 86.1408 79.9488 87.7755 80.8223C91.004 82.5465 94.1855 84.3636 97.4469 86.0227C98.3832 86.4999 98.3799 87.0738 98.256 87.8718C97.7807 90.9418 96.5179 93.7026 94.9796 96.3677C92.851 100.052 90.0094 103.062 86.537 105.502C85.3464 106.339 85.3007 106.395 84.2142 105.41C83.171 104.464 82.2353 103.399 81.2695 102.369C81.1379 102.227 81 101.936 81.0587 101.798C81.5827 100.602 82.1516 99.4254 82.7053 98.2457C83.107 97.9859 83.564 97.7832 83.8977 97.4553C84.7542 96.6163 85.575 95.7392 86.3704 94.8425C86.767 94.3959 87.075 93.8719 87.4228 93.3823C88.4733 92.9054 89.3823 92.2882 89.7549 91.246C88.7548 91.8146 87.7642 92.4984 86.6832 92.9688C83.9511 94.1625 80.0035 93.1729 78.8842 90.0864C78.1145 87.9633 78.8244 85.5248 80.8376 84.4838C81.6071 84.0853 82.4348 83.8004 83.3064 83.4341C83.1477 83.3368 83.0627 83.2421 82.9977 83.252C80.9214 83.6105 79.1057 84.3699 78.1322 86.4208C77.2397 88.2984 77.6495 90.0449 78.6433 91.7375C78.4633 92.3095 78.2813 92.8814 78.1013 93.4535L78.1009 93.4573ZM73.1136 76.1399C72.0868 76.0545 71.5634 76.4395 71.3015 77.4389C71.0162 78.5275 71.4457 79.4669 71.9637 80.3499C72.4663 81.2083 73.3025 81.5178 74.2819 81.3877C75.2692 81.2564 75.2806 80.3884 75.4504 79.7107C75.8746 78.031 74.6924 76.2696 73.1116 76.1398L73.1136 76.1399Z" fill="#0D0D0D"/>
<path d="M76.2773 102.948C74.7388 102.735 73.4902 102.027 72.6311 100.551C71.8126 99.1456 71.3732 97.7399 71.9742 96.1725C72.0823 95.891 72.4056 95.5486 72.6761 95.5004C73.6631 95.3283 74.6886 95.3614 75.662 95.1435C76.4729 94.9619 77.241 94.5574 78.0097 94.2131C80.4408 93.1271 82.1869 94.5961 82.0183 97.136C81.9247 98.5458 81.4375 100.078 80.668 101.259C79.7483 102.668 78.0589 103.004 76.2793 102.948L76.2773 102.948Z" fill="#0D0D0D"/>
<path d="M87.4206 93.3841C87.0728 93.8737 86.7647 94.3978 86.3682 94.8443C85.5728 95.741 84.7519 96.6181 83.8955 97.4572C83.5618 97.785 83.1048 97.9877 82.7031 98.2476C82.5478 97.2623 82.5454 96.2185 82.1888 95.3126C81.9211 94.6357 81.1966 94.1381 80.6752 93.5612C80.7024 93.517 80.735 93.4772 80.7696 93.4375C81.0749 93.5262 81.3757 93.6435 81.6861 93.6958C83.6195 94.0173 85.5546 94.3429 87.4187 93.384L87.4206 93.3841Z" fill="#FAC1E4"/>
<path d="M26.4594 81.2035C29.7475 82.5779 32.995 84.0612 36.3389 85.2853C38.4678 86.0642 40.7392 86.4559 42.947 87.0205C41.2857 86.6993 39.6054 86.4619 37.9741 86.0406C34.3715 85.1082 30.923 83.7451 27.6322 82C27.2179 81.7797 26.8502 81.4703 26.4594 81.2035Z" fill="#FDFDFD"/>
<path d="M52.9535 87.8794C54.2612 87.774 55.5709 87.6902 56.8768 87.5614C60.7042 87.1846 64.4538 86.4286 68.1067 85.22C68.1888 85.1923 68.2892 85.2223 68.3783 85.2262C67.5885 85.5454 66.825 85.9872 66.0032 86.16C63.0944 86.77 60.177 87.3676 57.2383 87.8082C55.8379 88.0179 54.3815 87.866 52.9517 87.8773L52.9535 87.8794Z" fill="#FDFDFD"/>
<path d="M78.1007 93.4572C78.2808 92.8852 78.4627 92.3133 78.6428 91.7412C79.3516 92.3072 80.0605 92.8733 80.7713 93.4395C80.7369 93.4772 80.7061 93.5191 80.677 93.5631C79.8187 93.5292 78.9588 93.4931 78.1006 93.4591L78.1007 93.4572Z" fill="#FAC1E4"/>
<path d="M22.7796 78.8773C23.8306 79.5545 24.8817 80.2318 25.9329 80.9072C24.8819 80.2299 23.8308 79.5526 22.7796 78.8773Z" fill="#FDFDFD"/>
<path d="M10.0609 64.4639C10.55 65.3211 11.0372 66.1782 11.5245 67.0334C11.0354 66.1761 10.5482 65.319 10.0609 64.4639Z" fill="#FDFDFD"/>
<path d="M43.4614 87.1155C44.3589 87.2344 45.2564 87.3533 46.1518 87.4739C45.2543 87.355 44.3587 87.2363 43.4614 87.1155Z" fill="#FDFDFD"/>
<path d="M20.9534 77.5391C21.4555 77.9125 21.9576 78.286 22.4577 78.6593C21.9557 78.2858 21.4536 77.9123 20.9534 77.5391Z" fill="#FDFDFD"/>
<path d="M13.4349 70.0317C13.8145 70.4721 14.192 70.9143 14.5699 71.3526C14.1902 70.9122 13.8126 70.472 13.4349 70.0317Z" fill="#FDFDFD"/>
<path d="M17.1584 74.2213C17.5512 74.5988 17.9439 74.9783 18.3368 75.3558C17.9441 74.9764 17.5512 74.5988 17.1584 74.2213Z" fill="#FDFDFD"/>
<path d="M12.0648 67.9707C12.2522 68.2741 12.4378 68.5754 12.6235 68.8767C12.4361 68.5733 12.2504 68.272 12.0648 67.9707Z" fill="#FDFDFD"/>
<path d="M19.6741 76.5059C19.8245 76.6315 19.9748 76.759 20.1252 76.8846C19.975 76.7571 19.8245 76.6315 19.6741 76.5059Z" fill="#FDFDFD"/>
<path d="M67.513 87.4614L67.5422 87.1265C67.5615 87.1281 67.5808 87.1298 67.6001 87.1315L67.5709 87.4665C67.5516 87.4648 67.5323 87.4631 67.513 87.4614Z" fill="#FDFDFD"/>
<path d="M20.3948 77.1489C20.4789 77.2106 20.5631 77.2703 20.6452 77.3317C20.5612 77.2701 20.477 77.2104 20.3948 77.1489Z" fill="#FDFDFD"/>
<path d="M9.72369 63.676C9.76162 63.7763 9.80147 63.8767 9.8394 63.977C9.80147 63.8767 9.76355 63.7764 9.72369 63.676Z" fill="#FDFDFD"/>
<path d="M67.8271 86.3362C67.849 86.3517 67.8843 86.3703 67.8816 86.3797C67.8711 86.4331 67.849 86.4855 67.8326 86.5403C67.8143 86.5271 67.7771 86.5083 67.7798 86.4989C67.7905 86.4436 67.8106 86.391 67.8269 86.3381L67.8271 86.3362Z" fill="#FDFDFD"/>
<path d="M9.23256 62.3066L9.28888 62.3096L9.25403 62.3514L9.23256 62.3066Z" fill="#FDFDFD"/>
<path d="M9.06051 61.7544L9.10046 61.7539L9.06361 61.7647L9.06051 61.7544Z" fill="#FDFDFD"/>
<path d="M90.2767 61.1773C89.7177 60.5429 90.0444 59.9603 90.3847 59.3789C91.1263 59.4124 91.8697 59.4926 92.6089 59.4639C93.2721 59.4382 93.931 59.2162 94.5923 59.2117C96.7413 59.2009 96.2989 58.8792 96.5852 57.1313C96.6423 56.7871 96.5462 56.3947 96.672 56.0894C96.8541 55.6495 97.1492 54.9613 97.4491 54.9331C97.8646 54.8936 98.3636 55.325 98.7666 55.6316C99.0965 55.8834 99.3405 56.2519 99.62 56.5691L99.6437 56.5867C99.8345 56.8962 100.025 57.2076 100.216 57.5171L100.223 57.5216C100.615 57.738 101.013 58.147 101.393 58.1317C102.24 58.0967 103.075 57.8339 103.921 57.6942C105.055 57.5077 105.281 57.6884 105.392 58.8017C104.863 59.4753 104.385 60.1999 103.785 60.8033C103.346 61.2442 103.425 61.5226 103.767 61.9267C104.2 62.4397 104.663 62.9533 104.967 63.5404C105.16 63.9141 105.26 64.5105 105.087 64.8427C104.949 65.11 104.314 65.2893 103.94 65.2316C103.189 65.1178 102.443 64.8724 101.74 64.5765C100.995 64.2615 100.495 64.4235 99.9661 65.0098C99.0712 66.0007 98.1288 66.9564 97.1409 67.8539C96.8624 68.1051 96.3513 68.1032 95.9488 68.2156C95.8349 68.1398 95.7191 68.0637 95.6053 67.9859L95.6018 67.9817C95.6624 66.4818 95.7212 64.9798 95.7837 63.48C95.8011 63.0567 95.8936 62.5973 95.2416 62.5832C94.9962 62.5444 94.7525 62.5077 94.5071 62.4688C94.3019 62.4141 94.0967 62.3594 93.8915 62.3047C93.7799 62.2698 93.6703 62.2331 93.5587 62.1981C93.358 62.1361 93.1554 62.0738 92.9546 62.0137C92.5875 61.8983 92.2224 61.7831 91.8553 61.6677C91.3272 61.5035 90.7992 61.3392 90.273 61.1751L90.2767 61.1773ZM96.6698 64.5115C96.8076 64.5584 96.9454 64.6053 97.0812 64.654C97.3752 64.4254 97.6552 64.1783 97.9631 63.9684C99.1859 63.1418 100.373 62.2075 101.965 63.2635C102.211 63.4265 102.701 63.2228 103.275 63.17C102.942 62.8035 102.774 62.655 102.65 62.4754C101.625 61.0246 101.655 60.9283 103.127 59.8732C103.614 59.5238 104.049 59.1019 104.507 58.7131C104.462 58.6277 104.417 58.5404 104.37 58.4548C103.462 58.6997 102.552 58.9308 101.65 59.1938C100.916 59.4072 100.306 59.4103 99.7727 58.7006C99.3008 58.0698 98.6793 57.5502 98.0011 56.8549C97.9138 57.2993 97.8647 57.4832 97.8425 57.6713C97.6348 59.4552 97.6334 59.426 95.8955 59.5385C95.1799 59.5849 94.4756 59.7932 93.7659 59.9293C93.77 60.0382 93.7743 60.1453 93.7784 60.2543C94.5575 60.5937 95.3218 60.9705 96.1189 61.2591C96.7409 61.4839 96.9764 61.8148 96.8582 62.4815C96.7397 63.1501 96.7267 63.8356 96.6675 64.5151L96.6698 64.5115Z" fill="#FAC1E4"/>
<path d="M88.5477 67.3908C87.1348 66.6277 85.7511 65.7973 84.2975 65.1219C83.1727 64.5992 81.9628 64.6529 80.836 65.226C80.1749 65.5622 79.4589 65.6589 79.1963 64.9242C79.0386 64.4798 79.2731 63.6623 79.6299 63.3151C80.9772 61.9951 82.7235 61.8542 84.4143 62.3505C85.7203 62.7338 86.9061 63.5159 88.1683 64.068C88.6046 64.2592 89.1089 64.2934 89.5819 64.3986C90.4746 64.7731 91.1963 64.3878 91.8805 63.8752C93.2904 62.8186 93.5906 62.8544 94.5435 64.235C94.5231 64.4912 94.5028 64.7474 94.4824 65.0036C92.9967 67.0196 90.8904 67.4997 88.5456 67.3926L88.5477 67.3908ZM93.1075 64.8529C92.7642 64.9336 92.496 64.9549 92.2655 65.057C90.9123 65.6627 89.5599 65.5217 88.2449 64.9961C87.0557 64.522 85.9456 63.8086 84.7261 63.458C83.6812 63.1576 82.524 63.1189 81.4289 63.171C80.9311 63.1956 80.4594 63.7229 79.9748 64.0201C80.0222 64.1232 80.0696 64.2262 80.117 64.3293C80.4486 64.2941 80.7903 64.2987 81.1105 64.216C82.0985 63.9645 83.0301 63.9369 84.0221 64.355C85.8469 65.1209 87.6823 65.9441 89.5969 66.392C91.2659 66.7817 92.4613 66.6491 93.1116 64.8513L93.1075 64.8529Z" fill="#FAC1E4"/>
<path d="M94.5456 64.2333C93.5906 62.8545 93.2926 62.8169 91.8826 63.8735C91.1984 64.3862 90.4767 64.7714 89.584 64.397C89.8155 63.3231 90.0451 62.2491 90.2766 61.1753C90.8046 61.3395 91.3327 61.5038 91.8588 61.6679C91.4353 61.6873 91.0098 61.7065 90.5181 61.7278C90.3862 62.4398 90.2463 63.1977 90.0852 64.0662C90.4125 64.0132 90.5858 64.0322 90.7047 63.9611C91.6346 63.4174 92.456 62.6238 93.6696 62.7508C93.7275 62.7558 93.8173 62.4611 93.8931 62.3047C94.0983 62.3594 94.3035 62.4142 94.5087 62.4689C94.5008 62.7824 94.4814 63.095 94.4872 63.4078C94.4925 63.6817 94.5231 63.9559 94.544 64.2293L94.5456 64.2333Z" fill="#FDFDFD"/>
<path d="M95.2472 62.5856C95.9011 62.5998 95.8086 63.0593 95.7892 63.4824C95.7267 64.9821 95.6679 66.4842 95.6073 67.9841C95.4578 67.7364 95.1779 67.4909 95.176 67.2444C95.1654 65.6917 95.215 64.1385 95.2452 62.5854L95.2472 62.5856Z" fill="#FDFDFD"/>
<path d="M46.302 64.8699C50.1211 65.2586 53.4873 66.3838 56.1728 69.0751C58.3256 71.2313 59.5752 73.7143 58.6359 76.8234C57.8952 79.2805 56.1593 80.8655 53.8535 81.9178C50.07 83.6446 46.1995 83.5559 42.3439 82.3591C39.728 81.5475 37.402 80.1308 35.6825 77.9309C32.9085 74.3803 33.1438 69.3769 37.9379 66.5588C40.5788 65.006 43.4475 64.6777 46.302 64.8699ZM52.3479 71.3666C52.5198 71.4689 52.6869 71.5804 52.8614 71.6751C53.6616 72.1075 54.53 72.4488 55.253 72.987C56.522 73.9296 56.4899 75.9286 55.1532 76.7685C54.4848 77.1894 53.5652 77.5031 52.804 77.4272C50.8633 77.233 48.9413 76.8252 47.0251 76.4392C45.9056 76.2138 45.3544 75.4209 45.2686 74.3078C45.209 73.5403 45.1789 72.7696 45.135 72.0015C44.857 72.3808 44.7164 72.7681 44.5872 73.1584C43.782 75.575 42.1379 76.1729 39.594 75.5383C38.6542 75.3033 38.2758 74.4692 38.6146 73.5696C38.9582 72.6587 39.509 71.9366 40.5658 71.7667C40.7294 71.7402 40.8794 71.6253 41.1309 71.5056C39.5675 71.2201 38.2302 72.2016 37.9397 73.73C37.6919 75.0352 38.4398 75.9344 39.9794 76.2255C41.5149 76.5182 42.9092 76.0655 44.2657 75.3999C45.8306 77.0297 47.8284 77.6846 49.92 77.954C51.4002 78.1449 52.9753 78.251 54.4162 77.9555C56.8013 77.4648 57.7557 74.3842 56.1037 72.8166C55.1036 71.8664 53.8276 71.3402 52.3479 71.3666Z" fill="#EFEEEE"/>
<path d="M18.9741 44.8167C19.0515 44.2395 19.1311 43.4376 19.2699 42.6466C19.6108 40.6959 20.3578 40.0645 22.3759 39.9493C24.7008 39.8161 26.9498 40.2194 29.1038 41.045C33.6391 42.786 37.1314 45.79 39.3245 50.1183C40.7646 52.9593 40.7316 56.0852 40.4206 59.1888C40.3338 60.0522 39.8035 60.6733 38.9375 60.7278C37.5028 60.8183 36.0401 60.9179 34.6207 60.742C30.0088 60.1718 25.7978 58.5463 22.3704 55.3326C19.9063 53.0232 18.7021 50.1078 18.9109 46.681C18.9284 46.3916 18.9516 46.1027 18.963 45.8146C18.9718 45.5574 18.969 45.2992 18.9739 44.8186L18.9741 44.8167Z" fill="#EFEEEE"/>
<path d="M93.9182 27.5087C93.4194 31.787 92.4584 36.8203 90.2275 41.5239C89.6821 42.6751 89.0832 43.8159 88.3805 44.8759C87.8436 45.6846 87.6096 45.5808 87.0761 44.7876C85.804 42.8981 84.6419 40.9058 83.1515 39.201C81.3392 37.1307 79.2689 35.2765 77.2388 33.4084C76.6286 32.847 76.4207 32.4216 76.8917 31.7236C78.2173 29.7596 79.4517 27.7275 80.8722 25.8358C82.2333 24.0223 83.7001 22.2685 85.2748 20.6366C86.8326 19.0206 88.5328 17.5334 90.6549 16.6261C91.9289 16.0813 92.5117 16.2873 93.062 17.5804C94.1756 20.1971 94.3856 22.2501 93.9182 27.5087Z" fill="#FAC1E4"/>
<path d="M15.2699 33.8352C15.1565 32.4579 14.952 31.2336 14.9729 30.0114C15.0314 26.4804 15.0383 22.9391 15.3328 19.4228C15.6708 15.3827 16.5284 11.4267 18.2124 7.68996C18.7955 6.39649 19.6567 5.34642 20.8487 4.58312C21.9027 3.90868 22.7082 4.14562 23.2611 5.29744C24.359 7.581 25.4647 9.8633 26.4999 12.1744C27.6262 14.6893 28.7157 17.2243 29.7452 19.7793C30.2102 20.937 30.5335 22.1581 30.8461 23.3685C31.1471 24.5333 30.8751 25.0004 29.7499 25.3311C25.8996 26.4624 22.5108 28.5009 19.2187 30.7011C18.0504 31.4819 17.0422 32.5017 15.9565 33.4062C15.816 33.5239 15.6438 33.604 15.2721 33.8315L15.2699 33.8352Z" fill="#FAC1E4"/>
<path d="M47.2174 53.7709C48.902 56.6157 51.1124 55.9449 53.4504 54.9458C53.495 55.4831 53.5874 55.8287 53.5379 56.1522C53.253 57.9953 52.9605 59.8378 52.6202 61.6703C52.4336 62.6744 51.7552 63.1429 50.7363 63.0794C49.7386 63.0178 48.7352 62.977 47.7485 62.8329C46.3933 62.6354 45.9811 62.2116 46.0738 60.8347C46.207 58.8795 46.4929 56.9355 46.74 54.9902C46.7778 54.6889 46.9617 54.4082 47.2154 53.7708L47.2174 53.7709ZM49.3252 57.7621C48.5438 57.694 47.8213 58.2674 47.7594 59.001C47.6934 59.8041 48.379 60.6145 49.1657 60.6655C49.9062 60.7125 50.7533 60.0472 50.8351 59.3541C50.914 58.6704 50.1181 57.8311 49.3252 57.7621Z" fill="#EFEEEE"/>
<path d="M54.1445 44.2503C54.0709 44.7618 54.0296 45.1461 53.96 45.5222C53.8032 46.3853 53.2936 47.1479 52.4741 47.2045C51.6391 47.2618 50.7644 46.8811 49.9245 46.6373C49.7728 46.5931 49.6474 46.2912 49.5972 46.0871C49.2238 44.592 49.404 43.1471 50.1506 41.8058C50.6116 40.9769 51.3515 40.5836 52.3337 40.7564C53.2871 40.9247 53.9269 41.5468 54.0702 42.5582C54.1542 43.1571 54.1279 43.7717 54.1465 44.2505L54.1445 44.2503Z" fill="#EFEEEE"/>
<path d="M64.8382 52.6453C63.2229 54.9662 62.2059 57.5156 61.4751 60.35C67.8955 55.9335 74.9691 54.1963 82.4301 53.7265C82.4574 53.8143 82.4846 53.9039 82.5139 53.9918C82.3418 54.0486 82.1739 54.1232 81.9982 54.1545C81.8106 54.1886 81.6144 54.1637 81.4271 54.194C75.4046 55.1342 69.4726 56.3966 64.1169 59.4801C63.0834 60.0748 62.2288 60.982 61.2898 61.7421C61.1329 61.87 60.9707 61.9917 60.785 62.1365C60.1094 60.2059 63.0974 53.1028 64.8402 52.6435L64.8382 52.6453Z" fill="#EFEEEE"/>
<path d="M53.1794 51.9448C52.9589 54.3212 51.3681 55.4455 49.2921 54.6848C49.0849 54.6085 48.8807 54.4977 48.7099 54.3606C47.8067 53.638 47.704 51.7572 48.4613 50.025C48.9299 48.9524 49.9223 48.4045 51.1156 48.5647C52.3551 48.7288 53.3298 50.3286 53.1811 51.9469L53.1794 51.9448Z" fill="#EFEEEE"/>
<path d="M51.0429 36.1963C51.347 35.5168 51.5739 34.7858 51.9792 34.1713C52.3644 33.588 53.1092 33.3386 53.6845 33.7417C54.2066 34.1092 54.8034 34.7566 54.8493 35.3231C54.9243 36.2491 54.6412 37.2234 54.3917 38.1463C54.1988 38.8666 53.6646 39.1072 52.8797 38.9011C51.0287 38.4141 51.0225 38.4408 51.0411 36.1943L51.0429 36.1963Z" fill="#EFEEEE"/>
<path d="M52.5196 28.6828C52.5447 28.394 52.5505 28.1035 52.6004 27.8208C52.6383 27.6088 52.674 27.3326 52.8187 27.2113C53.6917 26.4726 54.6277 27.0197 55.4698 27.2617C55.8075 27.3571 56.1669 28.0963 56.1541 28.5336C56.1316 29.2842 55.89 30.0488 55.6199 30.7624C55.2873 31.6354 54.5831 31.9097 53.6604 31.7227C52.7606 31.5415 52.4555 30.9602 52.46 30.1265C52.463 29.6457 52.4698 29.1653 52.4749 28.6827C52.4903 28.6841 52.5057 28.6854 52.5213 28.6848L52.5196 28.6828Z" fill="#EFEEEE"/>
<path d="M73.1131 76.1399C74.692 76.2696 75.8741 78.031 75.4519 79.7108C75.2821 80.3885 75.2707 81.2565 74.2834 81.3879C73.302 81.5177 72.4659 81.2083 71.9652 80.3501C71.4472 79.467 71.0158 78.5275 71.303 77.4391C71.5649 76.4397 72.0883 76.0546 73.115 76.1401L73.1131 76.1399Z" fill="#FAC1E4"/>
<path d="M80.7717 93.4372C80.0628 92.8711 79.354 92.3051 78.6432 91.7389C77.6475 90.0462 77.2396 88.2998 78.132 86.4223C79.1077 84.3696 80.9213 83.612 82.9975 83.2535C83.0627 83.2417 83.1476 83.3383 83.3063 83.4355C82.4346 83.8019 81.607 84.0868 80.8375 84.4853C78.8243 85.5263 78.1144 87.9648 78.8841 90.0878C80.0034 93.1744 83.9509 94.1639 86.6831 92.9702C87.7642 92.4979 88.7528 91.8159 89.7548 91.2475C89.3801 92.2914 88.471 92.9086 87.4227 93.3837C85.5586 94.3426 83.6216 94.0169 81.6901 93.6956C81.3797 93.6433 81.0789 93.526 80.7736 93.4373L80.7717 93.4372Z" fill="#EFEEEE"/>
<path d="M96.6699 64.5118C96.7289 63.8341 96.7421 63.1467 96.8606 62.4781C96.9789 61.8114 96.7454 61.4788 96.1214 61.2557C95.324 60.9691 94.558 60.5901 93.7808 60.2509C93.7767 60.1419 93.7724 60.0349 93.7683 59.9259C94.4778 59.7917 95.1822 59.5834 95.8979 59.5352C97.6379 59.4209 97.6372 59.4519 97.845 57.6679C97.867 57.4817 97.9161 57.2978 98.0035 56.8516C98.6817 57.5468 99.3032 58.0664 99.7751 58.6972C100.308 59.4089 100.917 59.4056 101.653 59.1904C102.554 58.9275 103.467 58.6965 104.373 58.4515C104.418 58.5368 104.463 58.6242 104.509 58.7097C104.052 59.0986 103.617 59.5204 103.129 59.8698C101.657 60.9268 101.628 61.0212 102.652 62.4721C102.779 62.6499 102.944 62.7982 103.278 63.1666C102.704 63.2195 102.214 63.4232 101.967 63.2601C100.376 62.2041 99.1864 63.1383 97.9655 63.965C97.6578 64.173 97.3777 64.4201 97.0836 64.6506C96.9458 64.6037 96.8079 64.5568 96.6722 64.5081L96.6699 64.5118Z" fill="#FDFDFD"/>
<path d="M93.8952 62.3069C93.8196 62.4613 93.7296 62.758 93.6717 62.753C92.4582 62.6241 91.6367 63.4196 90.7068 63.9632C90.5859 64.0342 90.4144 64.0173 90.0873 64.0684C90.2484 63.1998 90.3883 62.4419 90.5202 61.7299C91.014 61.7069 91.4374 61.6895 91.8609 61.6701C92.228 61.7855 92.5931 61.9007 92.9602 62.016C93.1609 62.0781 93.3635 62.1403 93.5643 62.2005C93.6759 62.2354 93.7855 62.2721 93.8972 62.3071L93.8952 62.3069Z" fill="#EFEEEE"/>
<path d="M93.5644 62.2003C93.3637 62.1382 93.1611 62.076 92.9603 62.0158C93.161 62.0779 93.3636 62.1401 93.5644 62.2003Z" fill="#FDFDFD"/>
<path d="M93.1077 64.853C92.4575 66.6508 91.2621 66.7834 89.5931 66.3937C87.6803 65.946 85.8429 65.1246 84.0183 64.3567C83.0261 63.9406 82.0966 63.9664 81.1067 64.2177C80.7867 64.2985 80.4448 64.2959 80.1132 64.331C80.0658 64.228 80.0184 64.1249 79.971 64.0219C80.4558 63.7227 80.9274 63.1954 81.4251 63.1728C82.5223 63.1189 83.6773 63.1593 84.7223 63.4598C85.9417 63.8103 87.0518 64.5238 88.2411 64.9978C89.5561 65.5235 90.9086 65.6625 92.2617 65.0587C92.4924 64.9547 92.7604 64.9353 93.1037 64.8546L93.1077 64.853Z" fill="#FDFDFD"/>
<path d="M52.3477 71.3664C53.8274 71.34 55.1034 71.8662 56.1035 72.8164C57.7555 74.384 56.8011 77.4646 54.416 77.9553C52.975 78.2508 51.4 78.1447 49.9197 77.9538C47.8282 77.6844 45.8304 77.0295 44.2655 75.3997C42.909 76.0653 41.5148 76.5161 39.9792 76.2253C38.4398 75.9323 37.6917 75.035 37.9395 73.7298C38.228 72.2012 39.5673 71.2199 41.1307 71.5054C40.8792 71.6251 40.7292 71.7401 40.5656 71.7665C39.5107 71.9366 38.958 72.6585 38.6144 73.5694C38.2756 74.469 38.6538 75.305 39.5938 75.5381C42.1376 76.1727 43.7837 75.575 44.587 73.1582C44.7162 72.7679 44.857 72.3787 45.1348 72.0013C45.1787 72.7694 45.2088 73.5401 45.2684 74.3076C45.3542 75.4207 45.9052 76.2155 47.0249 76.439C48.9412 76.8231 50.8631 77.2328 52.8038 77.427C53.565 77.503 54.4846 77.1892 55.153 76.7683C56.4897 75.9284 56.5218 73.9294 55.2528 72.9868C54.5297 72.4506 53.6613 72.1092 52.8612 71.6749C52.6867 71.5802 52.5194 71.4706 52.3477 71.3664Z" fill="#0D0D0D"/>
<path d="M49.325 57.7618C50.1179 57.8309 50.9138 58.6702 50.8349 59.3539C50.7553 60.0452 49.906 60.7123 49.1656 60.6653C48.3788 60.6143 47.6932 59.8039 47.7592 59.0008C47.8211 58.2672 48.5436 57.6938 49.325 57.7618Z" fill="#0D0D0D"/>
</svg>
